<?xml version="1.0" encoding="UTF-8" standalone="no"?>
<svg
   xmlns:dc="http://purl.org/dc/elements/1.1/"
   xmlns:cc="http://creativecommons.org/ns#"
   xmlns:rdf="http://www.w3.org/1999/02/22-rdf-syntax-ns#"
   xmlns:svg="http://www.w3.org/2000/svg"
   xmlns="http://www.w3.org/2000/svg"
   xmlns:sodipodi="http://sodipodi.sourceforge.net/DTD/sodipodi-0.dtd"
   xmlns:inkscape="http://www.inkscape.org/namespaces/inkscape"
   inkscape:version="1.0 (4035a4f, 2020-05-01)"
   sodipodi:docname="headphone-logo-2.svg"
   viewBox="0 0 1666.8993 1749.877"
   height="1749.8771"
   width="1666.8993"
   id="svg153"
   version="1.1">
  <metadata
     id="metadata159">
    <rdf:RDF>
      <cc:Work
         rdf:about="">
        <dc:format>image/svg+xml</dc:format>
        <dc:type
           rdf:resource="http://purl.org/dc/dcmitype/StillImage" />
        <dc:title></dc:title>
      </cc:Work>
    </rdf:RDF>
  </metadata>
  <defs
     id="defs157" />
  <sodipodi:namedview
     inkscape:current-layer="g161"
     inkscape:window-maximized="0"
     inkscape:window-y="126"
     inkscape:window-x="100"
     inkscape:cy="844.08237"
     inkscape:cx="-296.18217"
     inkscape:zoom="0.18231646"
     showgrid="false"
     id="namedview155"
     inkscape:window-height="827"
     inkscape:window-width="1077"
     inkscape:pageshadow="2"
     inkscape:pageopacity="0"
     guidetolerance="10"
     gridtolerance="10"
     objecttolerance="10"
     borderopacity="1"
     bordercolor="#666666"
     pagecolor="#ffffff" />
  <g
     transform="translate(-557.65918,-581.25101)"
     id="g161"
     inkscape:label="Image"
     inkscape:groupmode="layer">
    <path
       id="path165"
       d="m 1422.1944,2330.2351 c -5.0183,-1.2821 -22.4985,-10.1497 -26.2115,-13.2969 -3.4321,-2.9092 -9.3406,-16.0864 -16.2084,-36.1486 -5.4699,-15.9786 -16.688,-42.8726 -19.1423,-45.8913 -2.4934,-3.0667 -7.4968,-25.6847 -9.4625,-42.7753 -2.2376,-19.456 -4.1511,-28.8336 -5.773,-28.2931 -1.562,0.5207 -6.1141,8.9173 -12.0858,22.2931 -2.1281,4.7666 -6.3921,11.9666 -9.4756,16 -3.0836,4.0333 -6.8826,9.842 -8.4423,12.9081 -1.5597,3.0661 -5.3036,7.5661 -8.3198,10 -3.0162,2.4339 -7.4543,6.0752 -9.8625,8.0919 -6.975,5.841 -13.4913,5.1361 -27.4589,-2.9704 -6.2878,-3.6495 -12.5286,-7.8467 -13.8684,-9.3272 -4.4761,-4.946 -15.3956,-35.0232 -20.0726,-55.2887 -2.5911,-11.2276 -5.5084,-18.5168 -7.0337,-17.5741 -0.6213,0.384 -2.1995,3.2772 -3.5071,6.4293 -4.1996,10.1239 -10.16,21.5849 -14.0749,27.0644 -2.0958,2.9333 -5.1149,7.8953 -6.7091,11.0267 -1.6513,3.2433 -5.3804,7.4008 -8.6658,9.6612 -3.1718,2.1822 -6.9301,5.4464 -8.3517,7.2537 -3.6932,4.6951 -22.561,14.0208 -28.4088,14.0415 -5.8534,0.02 -18.2969,-4.138 -26.1468,-8.7383 -5.9603,-3.4931 -16.4401,-16.2999 -19.9321,-24.3581 -2.6319,-6.0734 -4.2882,-18.4354 -5.7242,-42.7234 -0.6668,-11.2768 -1.7955,-21.0865 -2.5083,-21.7993 -0.8391,-0.8392 -2.5927,0.9835 -4.9742,5.17 -10.1577,17.8568 -15.4624,24.1544 -24.8307,29.4781 -5.4291,3.0852 -6.8647,3.3644 -16.1544,3.1415 -5.6948,-0.1368 -6.6442,-0.6043 -8.6667,-4.2671 -1.2492,-2.2625 -5.1387,-8.7125 -8.6433,-14.3333 -3.5046,-5.6209 -7.583,-12.9199 -9.0631,-16.2199 -1.4801,-3.3 -3.8444,-8.187 -5.254,-10.8602 -3.2969,-6.252 -11.0209,-27.1499 -14.4663,-39.1398 -2.3929,-8.3273 -4.1882,-18.4224 -6.4815,-36.4466 -0.9214,-7.2414 -3.1425,-8.1508 -8.6297,-3.5336 -4.034,3.3944 -4.8561,3.5678 -13.0197,2.7464 -17.4119,-1.752 -24.3677,-5.4371 -28.3431,-15.0159 -3.4271,-8.2575 -8.5534,-25.2215 -13.2209,-43.7503 -4.1779,-16.5852 -4.3977,-18.7433 -5.0914,-50 -0.814,-36.6805 -0.2671,-42.193 8.0032,-80.6666 2.8375,-13.2 5.84,-28.2 6.6722,-33.3334 0.8321,-5.1333 2.9916,-15.6333 4.7988,-23.3333 1.8072,-7.7 3.8192,-16.7 4.4712,-20 3.5738,-18.0907 5.5891,-27.4384 8.7676,-40.6667 1.9382,-8.0666 4.2789,-17.9666 5.2015,-22 0.9227,-4.0333 3.5901,-15.4333 5.9277,-25.3333 4.0164,-17.0096 4.2043,-18.9537 3.4157,-35.3333 -0.8425,-17.4998 1.4374,-38.6178 6.5223,-60.4148 4.7287,-20.2702 15.1365,-27.8048 30.9599,-22.4132 5.4501,1.8569 12.5207,2.8876 12.5415,1.828 0.056,-2.8432 15.0128,-35.9542 17.3906,-38.4982 2.2648,-2.4233 5.7278,-3.9926 11.2695,-5.1074 4.4,-0.8851 12.0992,-2.8184 17.1094,-4.2963 10.2406,-3.0208 13.7067,-2.7269 28.2239,2.3931 13.5969,4.7956 28.9059,17.3802 38.4962,31.6457 7.8085,11.6151 12.1556,16.4303 13.1957,14.6165 0.3428,-0.5977 1.9829,-5.5868 3.6446,-11.0868 5.7054,-18.8838 9.339,-23.4229 23.4542,-29.299 11.4662,-4.7735 11.7214,-4.7888 23.1202,-1.3942 7.4987,2.2332 10.4621,4.1118 19.2269,12.1879 5.699,5.2513 13.8812,14.1132 18.1827,19.6932 9.4338,12.2376 16.7249,20.1455 18.5743,20.1455 0.7502,0 2.2847,-3.1671 3.41,-7.0379 3.8011,-13.0753 17.4172,-27.6521 29.6136,-31.7029 3.3695,-1.1191 5.1184,-0.9639 8.4291,0.7481 5.0033,2.5873 7.1054,1.3673 9.347,-5.4249 1.8585,-5.6312 6.5553,-9.0235 15.6886,-11.331 9.8224,-2.4816 19.7472,-0.2974 28.3052,6.229 8.7729,6.6902 10.2876,9.0964 19.2124,30.5196 9.0911,21.8221 12.4108,28.6666 13.9039,28.6666 0.5961,0 3.0036,-3.7226 5.3502,-8.2725 2.3465,-4.5499 8.7467,-15.2581 14.2225,-23.796 6.8795,-10.7265 9.956,-16.7945 9.956,-19.6367 0,-3.1413 1.024,-4.8164 4.3334,-7.0888 2.3833,-1.6366 7.8174,-5.9484 12.0758,-9.5817 10.2839,-8.7743 22.9567,-11.4868 33.3597,-7.1401 5.5749,2.3293 14.9694,12.9814 17.017,19.2949 2.6118,8.0529 13.162,28.2847 15.1468,29.0463 1.124,0.4313 5.9367,-3.5762 12.2907,-10.2348 5.7439,-6.019 14.7461,-14.4642 20.0052,-18.7671 8.4716,-6.9315 10.2367,-7.8235 15.4805,-7.8235 6.4927,0 12.5642,3.3436 21.2699,11.7134 5.6765,5.4574 9.6921,14.9405 17.0159,40.1834 5.6016,19.3075 7.3557,21.3362 12.8982,14.9183 8.7046,-10.0793 44.74,-33.0411 57.8623,-36.8696 3.9845,-1.1625 9.178,-2.7087 11.5409,-3.4359 5.269,-1.6213 11.1358,-0.1641 18.7884,4.6668 7.4851,4.7251 12.904,12.5292 16.5411,23.822 1.6521,5.1299 3.7717,9.6216 4.7103,9.9818 0.9492,0.3642 8.3524,-6.0754 16.6852,-14.5132 8.2382,-8.3424 19.4624,-18.138 24.9422,-21.7679 9.9634,-6.5997 9.9634,-6.5997 20.8086,-6.3559 11.8825,0.2672 15.3936,1.2606 20.8669,5.9034 4.7467,4.0265 8.0856,16.4474 6.9416,25.8233 -0.6445,5.2821 -0.3583,7.1213 1.3256,8.5189 1.8671,1.5495 3.2419,0.7567 10.5253,-6.0698 19.0082,-17.8158 35.8056,-30.8062 43.5686,-33.6938 14.2245,-5.2912 22.0097,-5.1093 26.5161,0.6196 1.4473,1.84 3.5524,7.3942 4.6779,12.3424 1.1254,4.9483 3.2002,11.6704 4.6106,14.9382 2.1931,5.081 2.659,10.2337 3.2175,35.5866 0.6531,29.6454 0.6531,29.6454 10.4821,41.0054 20.0862,23.2148 32.3115,43.2388 39.1147,64.0665 2.4044,7.3612 5.5896,15.7711 7.078,18.6888 3.8292,7.5059 17.6364,48.9796 17.6364,52.976 0,1.8293 1.5517,9.2417 3.4484,16.472 2.8683,10.9345 3.5739,17.2137 4.1939,37.3272 0.7456,24.1811 0.7456,24.1811 -3.612,30.906 -5.8722,9.0623 -10.5328,10.8007 -24.697,9.2119 -2.2024,-0.247 -2.6082,0.3973 -2.331,3.7009 0.4398,5.2417 3.8096,23.6153 7.0914,38.6667 3.9307,18.0265 6.1424,40.658 5.0527,51.7018 -0.5227,5.2974 -1.6543,17.1315 -2.5145,26.2982 -0.8604,9.1666 -2.4755,18.7666 -3.5891,21.3333 -1.1136,2.5667 -2.4911,9.8944 -3.0611,16.2837 -1.5812,17.7251 -6.4494,23.7163 -19.2712,23.7163 -5.4113,0 -6.3254,-0.5513 -12.7125,-7.6667 -3.7851,-4.2166 -8.0395,-9.7666 -9.454,-12.3333 -1.4145,-2.5667 -3.3156,-5.8316 -4.2247,-7.2555 -0.9089,-1.4237 -3.6454,-5.8117 -6.0809,-9.751 -3.6328,-5.8756 -4.7705,-6.8783 -6.3333,-5.5814 -1.0479,0.8696 -1.8994,3.7576 -1.8924,6.4178 0.013,2.6602 -4.5258,18.9368 -10.0727,36.1701 -5.5469,17.2333 -10.7439,33.4333 -11.5487,36 -0.8048,2.5667 -4.615,11.2667 -8.4672,19.3333 -6.618,13.8587 -9.676,20.8492 -18.5846,42.4848 -3.3626,8.1663 -7.7948,15.2302 -16.5666,26.4036 -1.5349,1.9552 -7.7342,6.6052 -13.7762,10.3334 -13.6656,8.4318 -20.3356,9.0442 -31.1226,2.8573 -6.414,-3.6789 -7.118,-4.6443 -12.6329,-17.3209 -3.2123,-7.3836 -6.2328,-13.4248 -6.7124,-13.4248 -1.1047,0 -3.0796,5.1369 -5.8948,15.3333 -3.4037,12.3275 -13.2321,34.3965 -19.9284,44.7479 -3.3213,5.1344 -6.0389,9.8632 -6.0389,10.5085 0,2.7693 -8.2806,7.7571 -16.6307,10.0173 -9.0225,2.4423 -9.0225,2.4423 -18.4807,-1.4157 -11.662,-4.7569 -14.3558,-8.3673 -18.0872,-24.2409 -1.502,-6.3894 -4.141,-15.2171 -5.8645,-19.6171 -1.7236,-4.4 -4.8071,-13.7 -6.8521,-20.6667 -5.17,-17.6118 -6.1518,-20 -8.2212,-20 -0.9971,0 -2.2163,1.65 -2.7095,3.6667 -0.4932,2.0167 -2.0047,5.7577 -3.3588,8.3136 -1.3541,2.5557 -2.462,5.4387 -2.462,6.4065 0,0.9678 -1.2159,4.4286 -2.702,7.6908 -1.4861,3.2623 -3.2989,9.0788 -4.0285,12.9258 -0.7295,3.8469 -2.5084,10.1533 -3.953,14.0144 -1.4446,3.8609 -3.5804,11.3614 -4.7462,16.6677 -1.1659,5.3064 -5.1644,18.9479 -8.8855,30.3145 -9.2316,28.1988 -16.4915,38.9878 -32.3515,48.0775 -7.0288,4.0284 -9.066,4.5667 -16.7806,4.4337 -15.6315,-0.2692 -21.5244,-3.1758 -35.886,-17.7006 -10.8415,-10.9647 -13.1204,-14.0594 -15.8159,-21.4772 -1.7321,-4.7667 -5.262,-13.4667 -7.8443,-19.3334 -3.609,-8.1996 -11.0065,-32.5781 -11.0065,-36.2722 0,-0.3035 -0.6371,-0.1582 -1.4156,0.323 -2.1688,1.3404 -4.0136,6.8315 -6.5883,19.6108 -1.2922,6.4139 -3.3122,13.131 -4.4889,14.927 -1.1768,1.7958 -3.9228,9.4176 -6.1023,16.9372 -2.1794,7.5194 -5.0744,15.2024 -6.433,17.073 -1.3588,1.8707 -4.3424,6.7012 -6.6304,10.7346 -5.6195,9.9062 -9.837,13.628 -21.9519,19.3709 -10.8819,5.1584 -21.7198,6.8685 -30.0462,4.7412 z m 19.1795,-32.584 c 2.3043,-3.1357 6.134,-9.5623 8.5106,-14.2813 2.3765,-4.7191 6.0228,-11.0614 8.1028,-14.094 2.0798,-3.0327 4.3769,-7.8327 5.1046,-10.6667 2.278,-8.8728 12.9698,-39.2577 18.4686,-52.4861 10.9464,-26.3338 17.6238,-51.6458 17.6238,-66.806 0,-5.1531 0.5995,-10.4895 1.3322,-11.8586 0.7328,-1.369 5.3134,-4.6033 10.1794,-7.187 8.3648,-4.4418 9.0546,-4.5908 12.6486,-2.7323 2.0906,1.0812 4.1784,3.4684 4.6393,5.3049 0.9851,3.9251 -0.5167,19.6947 -2.3297,24.4635 -1.9991,5.2579 -1.3967,37.5251 0.98,52.4933 1.1924,7.5106 3.508,17.2555 5.1456,21.6555 1.6377,4.4 4.6745,13.1 6.7486,19.3333 2.074,6.2334 8.3808,20.3163 14.015,31.2955 11.5226,22.4537 15.8412,27.2329 25.6032,28.3332 5.6025,0.6315 5.9657,0.4485 9.396,-4.7349 4.068,-6.1472 10.727,-22.7512 16.935,-42.2271 2.3375,-7.3333 7.2099,-21.7333 10.8274,-32 7.4622,-21.1785 9.6188,-29.1043 11.7906,-43.3333 0.8395,-5.5 2.3831,-13.9 3.4304,-18.6667 1.0472,-4.7667 2.5378,-14.0667 3.3122,-20.6667 1.4916,-12.7106 2.7037,-18.9858 6.8976,-35.7082 1.431,-5.7063 3.1352,-13.6514 3.7869,-17.6558 1.2129,-7.4518 7.3949,-17.1521 11.8644,-18.6162 1.1719,-0.3839 3.4809,-2.7875 5.1313,-5.3412 2.895,-4.4795 10.152,-8.6786 14.999,-8.6786 4.6696,0 5.3705,3.2268 5.973,27.4987 0.7038,28.3497 3.659,57.7057 7.4898,74.4003 9.7878,42.6553 15.2914,60.7677 18.4645,60.7677 2.1841,0 11.3709,-20.3901 20.7252,-46 8.3523,-22.8667 11.0587,-33.1485 15.442,-58.6667 2.6585,-15.4768 2.8213,-18.7614 1.5201,-30.6666 -1.4573,-13.3334 -1.4573,-13.3334 2.0674,-17.0212 3.8105,-3.9871 12.2673,-6.9312 16.2646,-5.6626 4.4512,1.4128 6.5607,6.763 7.9667,20.2054 5.7556,55.0289 7.6184,65.3464 15.4189,85.3994 6.3275,16.2663 9.7082,21.7456 13.4167,21.7456 3.7203,0 15.3487,-13.9893 22.0649,-26.5446 3.781,-7.0679 9.8012,-21.9116 13.7896,-34 8.1015,-24.5543 9.2264,-28.6522 16.8722,-61.4554 3.0766,-13.2 7.6358,-31.5 10.1317,-40.6666 5.6701,-20.8258 8.4,-46.5658 5.7803,-54.5032 -1.103,-3.342 -1.3902,-7.4967 -0.7932,-11.4766 0.8182,-5.4568 1.4974,-6.473 5.4218,-8.1128 4.5788,-1.9132 10.7911,-1.8506 14.1256,0.142 1.0223,0.6108 4.9764,3.3947 8.787,6.1864 5.8326,4.2731 7.2544,6.1848 8.9889,12.0867 8.7688,29.8371 10.4523,34.4637 15.0639,41.4015 8.1386,12.2438 8.3521,11.8762 8.3521,-14.378 0,-12.7804 -0.5729,-27.6116 -1.2731,-32.9583 -0.7001,-5.3465 -1.9238,-17.8211 -2.7192,-27.7211 -3.7685,-46.9046 -7.5117,-61.4362 -25.0717,-97.3333 -7.7973,-15.9399 -10.1435,-22.0603 -10.2575,-26.7597 -0.093,-3.8259 -1.5149,-8.7076 -3.8217,-13.1194 -3.4491,-6.5962 -3.5451,-7.2228 -1.5679,-10.2402 1.1583,-1.7678 2.7066,-3.214 3.4407,-3.214 0.734,0 4.3876,-2.1 8.1188,-4.6667 7.2435,-4.9827 9.1743,-5.4619 13.2392,-3.2864 1.8581,0.9944 2.5791,2.8025 2.5791,6.4677 0,7.6411 2.0788,12.5604 13.0232,30.8187 5.4946,9.1667 12.106,20.2667 14.6918,24.6667 7.1054,12.0901 13.8039,20.0034 15.0492,17.7782 1.0804,-1.9306 -1.8922,-37.9977 -3.883,-47.1116 -9.8626,-45.1526 -33.46,-92.9425 -65.1783,-132 -13.6449,-16.8022 -21.5176,-23.226 -30.196,-24.6384 -3.9932,-0.6498 -9.6861,-2.4192 -12.6509,-3.9316 -5.8564,-2.9877 -14.856,-13.6526 -14.856,-17.605 0,-6.3522 22.5972,-14.2462 33.1288,-11.573 3.0985,0.7866 5.9997,1.0639 6.4472,0.6164 2.585,-2.585 5.1746,-33.4713 3.2308,-38.535 -1.9216,-5.0059 -5.4372,-4.6928 -13.1286,1.1689 -6.7209,5.1221 -34.3746,33.9571 -40.1176,41.8311 -1.872,2.5666 -5.035,6.4666 -7.029,8.6666 -4.347,4.796 -8.0276,10.7984 -12.6727,20.6667 -4.0963,8.7025 -4.8543,9.2864 -12.09,9.3129 -4.0609,0.015 -6.6728,-0.9122 -9.6667,-3.4314 -4.0913,-3.4427 -4.1022,-3.4884 -4.1022,-17.1706 0,-8.6497 0.6834,-15.3798 1.8497,-18.2148 1.0175,-2.4728 2.8856,-10.7316 4.1515,-18.3528 3.5925,-21.6289 1.4013,-32.3189 -6.2218,-30.3529 -4.2234,1.0893 -27.9225,24.4649 -37.7794,37.2641 -4.4,5.7134 -9.8438,12.6928 -12.0971,15.51 -2.2533,2.8172 -6.3236,9.6283 -9.0448,15.1356 -7.6207,15.4231 -14.9885,16.8155 -29.1915,5.5164 -6.9712,-5.5458 -7.6666,-6.5692 -7.6666,-11.2793 0,-2.8491 0.876,-7.1504 1.9466,-9.5587 2.6082,-5.8665 6.2,-39.613 4.5454,-42.7048 -0.6888,-1.2872 -2.3226,-2.3404 -3.6303,-2.3404 -4.9991,0 -17.0533,4.4539 -21.5257,7.9534 -2.5682,2.0096 -8.8694,6.5438 -14.0027,10.0764 -11.4799,7.8998 -15.8347,11.5506 -29,24.3126 -9.4476,9.158 -10.3333,10.4672 -10.3333,15.2731 0,10.4577 -11.1288,16.3281 -21.14,11.1512 -5.1824,-2.68 -6.8579,-7.3507 -6.874,-19.1628 -0.015,-10.9217 -4.9004,-37.6123 -8.408,-45.9343 -2.5892,-6.143 -6.7691,-8.3009 -12.9678,-6.6946 -3.675,0.9522 -6.8593,4.1518 -16.5794,16.6592 -14.4474,18.5902 -20.4102,28.0973 -21.5499,34.3597 -0.4677,2.57 -2.0081,6.3228 -3.4231,8.3395 -2.1612,3.08 -3.5373,3.6666 -8.6013,3.6666 -5.6977,0 -6.5435,-0.5178 -15.4085,-9.436 -9.38,-9.4358 -9.38,-9.4358 -9.7159,-33.1129 -0.2227,-15.7045 -0.8964,-24.7613 -2.0005,-26.8973 -2.9238,-5.6556 -7.0178,-9.2127 -12.2136,-10.6118 -7.253,-1.9529 -12.9991,1.4219 -26.2428,15.413 -11.0725,11.6973 -25.5419,33.8385 -25.5419,39.0844 0,1.4869 -0.8222,3.5257 -1.8271,4.5306 -2.7178,2.7178 -6.1729,9.8734 -6.1729,12.784 0,1.4042 -1.2964,4.2011 -2.8809,6.2155 -2.5384,3.2271 -3.5624,3.5856 -8.6155,3.016 -4.4651,-0.5033 -7.2956,-2.0436 -12.7858,-6.9583 -8.2038,-7.3436 -9.5427,-9.5525 -11.5504,-19.0558 -0.8167,-3.8659 -2.9885,-9.9959 -4.8262,-13.6224 -1.8377,-3.6266 -3.3412,-7.7206 -3.3412,-9.0979 0,-3.2203 -9.0648,-17.0899 -14.4917,-22.1729 -3.5917,-3.3643 -4.7076,-3.7426 -7.8477,-2.6599 -2.157,0.7437 -4.5986,3.1763 -5.9443,5.922 -3.0967,6.3189 -4.7278,28.5825 -3.3634,45.9087 1.2181,15.4669 -0.2005,20.857 -6.2096,23.595 -3.8797,1.7678 -14.1566,-0.1226 -15.5468,-2.8593 -1.4496,-2.8541 -3.9578,-27.0188 -3.9427,-37.9852 0.01,-5.1336 -0.8523,-13.4687 -1.9097,-18.5225 -3.5956,-17.1852 -6.3954,-15.715 -14.0228,7.3636 -5.6169,16.9956 -5.9164,18.6958 -6.4274,36.4928 -0.5773,20.1044 -1.1068,21.6896 -8.2288,24.6397 -2.7163,1.1251 -5.1684,1.166 -8.9448,0.1491 -9.4013,-2.5315 -9.9688,-3.4854 -10.6161,-17.8435 -0.7444,-16.5129 -5.686,-36.3067 -10.9881,-44.0129 -6.1062,-8.8752 -27.9501,-32.7472 -33.9264,-37.0763 -9.7609,-7.0708 -14.0833,-4.7472 -21.1775,11.384 -5.1419,11.6923 -6.8983,25.0576 -5.9004,44.8992 0.5692,11.3173 1.4922,17.0465 3.4372,21.3333 1.8548,4.0882 2.6679,8.7687 2.6884,15.4754 0.025,8.196 -0.4014,10.016 -2.8888,12.3333 -1.605,1.4953 -3.7348,2.7187 -4.7329,2.7187 -0.9982,0 -3.6813,0.9652 -5.9626,2.1449 -3.7887,1.9592 -4.5302,1.9625 -8.5654,0.039 -2.9321,-1.3983 -4.6907,-3.3526 -5.2296,-5.8116 -0.9836,-4.4884 -1.6468,-6.4342 -8.422,-24.7098 -6.8261,-18.4128 -13.5326,-29.4722 -20.5638,-33.9108 -2.9961,-1.8913 -14.1531,-11.8238 -24.7932,-22.0722 -24.0334,-23.1484 -23.8683,-23.0347 -30.4132,-20.9596 -7.7295,2.4508 -8.8221,3.175 -12.1767,8.0725 -3.0804,4.4973 -3.1045,4.8277 -2.4696,33.8749 0.3527,16.1334 1.6016,36.5334 2.7754,45.3334 1.1737,8.8 2.5052,18.7798 2.9587,22.1774 0.6916,5.1811 0.3694,6.6328 -1.9979,9 -1.5523,1.5524 -3.9764,2.8226 -5.3868,2.8226 -1.4104,0 -4.4896,1.62 -6.8428,3.6 -5.0105,4.2161 -11.8316,4.7721 -15.6913,1.2792 -3.9893,-3.6103 -8.0072,-18.7152 -9.4551,-35.5459 -1.6421,-19.0879 -5.8338,-40.1339 -9.111,-45.7452 -3.0656,-5.2489 -7.4743,-5.7504 -8.1022,-0.9215 -0.2384,1.8334 -1.3244,6.0103 -2.4133,9.282 -1.0889,3.2718 -2.3316,12.9454 -2.7616,21.4968 -0.9302,18.5015 1.4791,28.0516 7.9167,31.3807 3.3555,1.7352 3.6916,2.5777 3.6916,9.2551 0,4.519 -0.8293,8.6116 -2.1551,10.6349 -1.7096,2.6093 -1.9638,5.0743 -1.23,11.9265 0.9182,8.5742 0.8916,8.6694 -3.6317,12.9974 -5.9745,5.7166 -12.1108,21.7021 -16.9877,44.2545 -2.0742,9.5913 -5.2506,22.2388 -7.0587,28.1055 -4.0339,13.0888 -5.4235,18.7668 -8.9732,36.6666 -1.527,7.7 -3.6943,16.7 -4.8161,20 -3.6397,10.7064 -5.787,38.3895 -6.1172,78.8598 -0.3195,39.1686 -0.3195,39.1686 3.6057,44.3149 3.7366,4.8989 3.9278,5.7953 3.978,18.6524 0.048,12.2839 0.4147,14.2303 4.0527,21.5063 2.2,4.4 4.8608,8 5.9128,8 2.9281,0 10.71,-14.4279 15.8063,-29.3054 5.0186,-14.6508 7.6713,-25.8102 9.0665,-38.1422 0.7276,-6.431 1.6958,-8.8287 4.8314,-11.9643 2.2008,-2.2008 5.3516,-3.9215 7.1808,-3.9215 2.1587,0 3.7584,-1.0953 4.7372,-3.2436 1.5943,-3.499 12.0891,-8.7564 17.4797,-8.7564 5.5902,0 8.8599,5.0464 9.0926,14.0334 0.267,10.3084 -1.1654,17.4945 -4.6443,23.3 -5.2217,8.7141 -7.2568,13.9804 -9.5205,24.6368 -4.5278,21.315 0.3285,90.4825 7.9465,113.1808 1.7565,5.2336 4.5224,13.938 6.1464,19.343 1.624,5.4051 4.1118,10.9866 5.5285,12.4034 2.5456,2.5454 2.6648,2.4945 10.1407,-4.338 4.1607,-3.8027 11.2927,-11.4979 15.849,-17.1006 7.544,-9.2764 8.6597,-11.4946 12.4851,-24.8228 3.2211,-11.2222 4.3719,-18.3074 4.9338,-30.3768 0.733,-15.7406 0.733,-15.7406 5.2136,-19.1581 3.4183,-2.6073 4.4805,-4.4161 4.4805,-7.6293 0,-5.131 2.8752,-9.4883 8.0147,-12.146 8.3436,-4.3147 16.3353,-1.2554 19.176,7.3408 1.0465,3.1669 2.6398,4.8386 5.476,5.7457 8.684,2.7771 9.0004,5.9273 1.7374,17.2999 -10.5714,16.5529 -14.8377,43.4862 -14.9355,94.2878 -0.049,25.338 0.042,26.2175 3.5641,34.539 7.3238,17.303 21.0752,36.1277 26.3913,36.1277 3.0243,0 9.8271,-7.0981 12.7785,-13.3333 1.215,-2.5667 3.4951,-6.4667 5.067,-8.6667 3.6258,-5.0747 8.66,-16.3553 14.8758,-33.3333 2.6848,-7.3334 6.9575,-17.5334 9.4949,-22.6667 9.3137,-18.8421 14.8996,-35.7615 15.7094,-47.5831 1.7069,-24.9146 1.7127,-24.9374 7.7664,-30.5609 4.3809,-4.0695 6.6044,-5.1596 10.5507,-5.1727 9.0615,-0.031 10.4955,3.5488 12.2807,30.65 1.0046,15.2506 3.6179,41.1823 4.6357,46 8.0398,38.057 17.4065,70.5482 23.7077,82.2379 3.7791,7.0108 8.7088,9.8199 14.8616,8.4685 5.0326,-1.1053 15.294,-13.1974 19.8344,-23.373 1.7997,-4.0334 5.0625,-10.9334 7.2507,-15.3334 4.487,-9.0224 11.0456,-27.9668 12.4633,-36 0.5176,-2.9333 2.0937,-9.8333 3.5022,-15.3333 6.5425,-25.5464 7.7037,-27.5621 16.6316,-28.8716 2.841,-0.4167 7.7919,-1.6099 11.0021,-2.6516 5.1421,-1.6685 6.2107,-1.6489 8.9789,0.1648 1.7281,1.1324 3.4383,3.4012 3.8002,5.0419 0.362,1.6408 0.8953,16.4832 1.185,32.9832 0.5267,30 0.5267,30 6.5363,53.3333 8.1025,31.4597 14.8797,54.0581 20.5694,68.5884 2.6012,6.6431 6.8021,18.0783 9.3352,25.4116 6.0429,17.4941 16.6193,34.0727 21.6574,33.948 1.1555,-0.029 3.9862,-2.6176 6.2905,-5.7532 z m -59.5229,-384.8319 c -20.433,-0.8733 -52.7252,-3.9533 -64.6667,-6.1678 -9.2758,-1.7203 -25.9421,-6.949 -46,-14.4314 -11.9226,-4.4476 -37.4291,-20.4445 -53.3333,-33.449 -15.7054,-12.842 -39.8884,-40.2082 -43.1382,-48.8164 -2.4452,-6.4771 3.3481,-14.4983 10.4715,-14.4983 3.9375,0 8.5505,3.1671 10.1152,6.9448 2.1546,5.2015 35.377,38.5733 47.2181,47.4304 16.0572,12.0108 42.1966,24.356 60.9803,28.8 25.0215,5.92 30.0189,6.5587 52.3531,6.6907 12.4666,0.073 31.0666,-0.3578 41.3333,-0.9591 10.2667,-0.6012 28.2667,-1.6447 40,-2.3188 11.7334,-0.674 27.3334,-1.9379 34.6667,-2.8087 7.3333,-0.8706 17.0692,-1.5554 21.6353,-1.5217 14.827,0.1093 19.5106,6.8667 10.3403,14.9184 -5.0145,4.4027 -6.5493,4.9176 -18.0433,6.0535 -4.0706,0.4022 -10.9706,2.0056 -15.3334,3.5629 -9.355,3.3395 -14.0934,4.5301 -31.9322,8.024 -16.8879,3.3076 -27.5967,3.7889 -56.6667,2.5465 z M 684.5177,1665.1783 c -16.1852,-3.6965 -26.6613,-7.3824 -32.8494,-11.5576 -3.3947,-2.2904 -8.6424,-5.6657 -11.6614,-7.5005 -3.0191,-1.835 -10.9503,-8.735 -17.6249,-15.3334 -9.7313,-9.6202 -14.0558,-15.2701 -21.8274,-28.5166 -11.8826,-20.2539 -17.3699,-32.2314 -21.142,-46.1472 -2.7413,-10.113 -11.88,-47.6782 -14.7728,-60.7245 -0.7388,-3.3318 -1.9651,-23.4318 -2.725,-44.6666 -0.76,-21.235 -2.0539,-43.709 -2.8753,-49.9423 -1.8566,-14.0889 -1.8344,-72.3643 0.031,-81.7387 4.3791,-22.0043 6.7803,-35.9094 6.7803,-39.2642 0,-2.0942 2.1321,-12.7754 4.7381,-23.7358 2.606,-10.9604 5.2895,-22.4865 5.9633,-25.6137 0.6738,-3.1271 1.7627,-6.7271 2.4197,-8 0.657,-1.2728 1.6011,-4.5662 2.0979,-7.3185 2.2311,-12.3591 19.1952,-44.7146 30.4087,-57.9984 3.462,-4.1011 7.5024,-10.0264 8.9788,-13.1673 2.0978,-4.4628 5.0929,-7.3219 13.7056,-13.0833 6.0617,-4.0549 12.5212,-8.395 14.3545,-9.6446 16.579,-11.3005 21.3503,-13.7368 30.7367,-15.695 5.4615,-1.1394 12.405,-2.0721 15.43,-2.0727 11.0057,0 13.0347,-1.0388 17.8499,-9.1197 2.4737,-4.1514 9.0672,-12.0481 14.6521,-17.5481 16.3002,-16.0524 31.6995,-22.1403 42.1789,-16.6749 2.1005,1.0955 5.4691,1.9955 7.4858,2 6.7957,0.015 11.7341,8.7408 7.4,13.0749 -1.0203,1.0203 -6.1977,1.6 -14.2896,1.6 -12.6895,0 -12.6895,0 -18.4599,6.3333 -3.1737,3.4834 -6.937,8.5469 -8.3629,11.2524 -3.9575,7.5089 -2.2074,8.497 22.6991,12.8145 7.3201,1.269 7.3201,1.269 21.3334,-6.7676 27.2271,-15.6147 33.6834,-20.0434 45.1401,-30.964 12.525,-11.9388 42.8731,-47.8427 42.8731,-50.7218 0,-0.4937 3.7399,-5.7838 8.3109,-11.7556 8.223,-10.74295 23.6891,-39.18515 23.6891,-43.56435 0,-1.247 1.2572,-3.8654 2.7936,-5.8188 4.4834,-5.6996 8.5261,-44.72492 4.8731,-47.04054 -0.9167,-0.58108 -9.1667,-1.08128 -18.3333,-1.11158 -12.5262,-0.0413 -18.3229,-0.64753 -23.3334,-2.43985 -9.1313,-3.26645 -17.6641,-8.41656 -19.7902,-11.94479 -0.9737,-1.61589 -4.2958,-6.92062 -7.3825,-11.78828 -4.8697,-7.67954 -5.6285,-9.88424 -5.7361,-16.66666 -0.2227,-14.03054 8.6527,-27.5882 23.3343,-35.64451 12.295,-6.74668 13.92,-6.85408 29.8234,-1.97097 11.1857,3.43453 15.283,5.41068 20.2228,9.75354 3.4073,2.9955 8.7684,7.10519 11.9137,9.13264 6.7692,4.36342 9.9411,9.1825 13.765,20.91291 1.5538,4.76667 3.8755,9.76979 5.1591,11.11804 2.2637,2.37751 2.5032,2.36508 7.9474,-0.41239 3.0874,-1.57506 13.6451,-5.80114 23.4617,-9.39128 21.5962,-7.8983 24.4618,-9.33049 34.3644,-17.17522 4.2622,-3.37654 10.0229,-7.93915 12.8015,-10.13915 2.7785,-2.2 9.4912,-7.36611 14.9171,-11.48024 13.033,-9.88231 36.8133,-35.17659 36.3984,-38.71576 -0.073,-0.62553 -0.2233,-1.68587 -0.3333,-2.35631 -0.11,-0.67042 -3.05,-2.99283 -6.5333,-5.16089 -27.9691,-17.4082 -39.2948,-39.35839 -36.9542,-71.62014 0.8958,-12.34772 6.0142,-27.94805 13.6547,-41.61834 3.2857,-5.87886 17.1309,-20.1288 25.6328,-26.38216 2.5667,-1.88786 6.8478,-5.96004 9.5137,-9.04931 4.847,-5.61685 4.847,-5.61685 16.6667,-5.59076 10.9401,0.0241 12.3899,0.35595 19.4832,4.45887 7.5678,4.37741 19.9148,16.62001 26.8401,26.6133 1.9591,2.8269 4.8113,9.28624 6.3382,14.35411 1.527,5.06787 3.7093,12.21429 4.8496,15.88096 1.4829,4.76828 2.0928,12.55167 2.142,27.33333 0.06,18.11972 -0.27,21.41167 -2.6799,26.71182 -1.5118,3.32484 -3.1917,8.42484 -3.733,11.33333 -0.5414,2.90851 -2.2013,8.12628 -3.6886,11.59505 -4.3908,10.24015 -3.5389,10.85087 13.9637,10.00966 16.3601,-0.7863 46.0918,-7.5259 62.3043,-14.12316 21.7699,-8.85875 61.7276,-30.68456 73.3333,-40.05634 4.4873,-3.62357 2.8636,-6.04818 -8.3966,-12.5379 -17.3259,-9.98567 -28.6137,-26.82463 -32.248,-48.10711 -2.3627,-13.83619 -2.5284,-20.94871 -0.646,-27.72631 1.7817,-6.41456 10.5637,-19.69065 19.8606,-30.02393 4.0865,-4.54203 8.93,-10.11123 10.7633,-12.37599 9.4113,-11.62594 47.2406,-17.02342 65.0612,-9.28292 3.2041,1.39176 10.3441,7.06179 16.2055,12.86919 9.6334,9.54468 10.5485,10.92104 11.3558,17.07909 1.6585,12.65163 1.1286,29.10383 -1.2219,37.93935 -2.5241,9.48823 -13.7783,32.67511 -19.4291,40.02951 -5.643,7.34433 -7.1177,10.72046 -5.4228,12.41529 2.6648,2.66479 15.1213,0.74619 28.7847,-4.43351 3.6666,-1.39001 12.9666,-4.40664 20.6666,-6.70362 36.2651,-10.8182 58.5377,-19.61623 69.9573,-27.63418 4.9477,-3.47398 5.5142,-4.57588 8.7464,-17.01261 1.9009,-7.31392 4.4412,-16.17 5.6453,-19.68017 2.2444,-6.5434 13.8796,-26.28454 15.4916,-26.28454 0.4939,0 3.9501,-2.2934 7.6807,-5.09642 3.7304,-2.80304 8.8142,-5.87339 11.2973,-6.823 2.4832,-0.94962 6.5424,-2.62118 9.0205,-3.71459 4.5666,-2.01488 9.0244,-1.91115 29.377,0.68357 7.8845,1.0052 8.9564,1.55103 13.7866,7.02019 8.532,9.66049 10.3203,13.26093 10.3258,20.7898 0,3.77276 -1.1871,10.67276 -2.644,15.33333 -2.396,7.66499 -12.6424,25.52891 -19.9208,34.73066 -3.6306,4.58994 -19.605,15.78789 -24.5427,17.20416 -4.7997,1.37673 -14.5625,7.07078 -16.8511,9.82825 -1.5094,1.81875 -0.8053,2.97889 5.1063,8.41375 3.7715,3.46725 6.8572,6.9479 6.8572,7.73478 0,3.1011 6.5741,6.9396 18.6667,10.8991 30.5262,9.99529 39.7829,12.48065 50.5485,13.57204 11.6536,1.1814 15.1879,0.48686 18.1829,-3.57311 0.9036,-1.22496 5.6192,-2.27841 13.3334,-2.97865 7.0121,-0.63652 18.2598,-3.01858 27.2685,-5.77496 8.4333,-2.58036 22.2333,-6.75866 30.6667,-9.28512 24.494,-7.33792 35.1949,-12.8729 32.6981,-16.91288 -0.4931,-0.79776 -0.8569,-11.18556 -0.8085,-23.08402 0.1409,-34.71845 4.4369,-43.5944 26.777,-55.32416 5.5,-2.88778 12.8222,-7.04662 16.2715,-9.24186 6.1097,-3.88832 11.7124,-6.22728 23.4887,-9.8057 4.9834,-1.51433 7.5001,-1.41761 18.6666,0.71744 7.0986,1.35726 14.4066,3.2136 16.2399,4.1252 4.4587,2.21704 9.4339,7.83163 13.9323,15.723 3.2302,5.66679 3.5877,7.36546 2.8058,13.33334 -0.8884,6.78161 -7.4469,25.29954 -13.0473,36.8392 -2.5661,5.28733 -7.2995,10.63844 -27.4188,30.9974 -2.7163,2.74857 -7.3387,6.23564 -10.272,7.74904 -9.8109,5.06181 -17.5385,9.87297 -25.2711,15.73374 -8.8776,6.72866 -8.9393,7.37691 -2.0728,21.75202 4.55,9.52526 10.5022,15.90024 24.6772,26.43028 14.7855,10.98349 27.3156,16.83505 50.6667,23.66131 10.424,3.04728 14.5391,3.51902 31.3333,3.59209 19.3334,0.0841 19.3334,0.0841 31.0656,-5.57688 9.7239,-4.69184 12.0235,-6.40383 13.4324,-10 0.935,-2.38646 3.4536,-8.8202 5.597,-14.29723 2.1434,-5.47701 5.2482,-11.77701 6.8996,-14 1.6513,-2.22297 4.0532,-5.77169 5.3373,-7.88604 1.2841,-2.11435 5.1848,-7.15771 8.6681,-11.20745 3.4834,-4.04975 6.3334,-7.8311 6.3334,-8.40299 0,-2.20732 30.2876,-28.44223 35.5052,-30.75432 3.0278,-1.34176 10.0712,-3.07464 15.6518,-3.85084 9.2148,-1.28165 10.7284,-1.15403 16.4783,1.38941 11.0801,4.90131 17.698,13.76175 17.698,23.69547 0,7.11264 -7.4043,26.80517 -11.8971,31.64165 -2.0436,2.2 -7.0008,8.5 -11.0158,14 -7.9099,10.83504 -15.663,18.17255 -36.6407,34.67662 -12.3043,9.68023 -14.5087,10.88856 -23.9133,13.10773 -6.9448,1.6387 -10.9374,3.3144 -12.1119,5.08336 -1.3048,1.96516 -1.7697,9.93518 -1.8211,31.21891 -0.069,28.55084 -0.064,28.59709 4.5202,45.24672 2.5238,9.16667 7.5924,24.16667 11.2633,33.33333 5.612,14.01416 7.8743,17.97936 14.2147,24.91466 9.1166,9.9721 16.2021,13.6389 28.3173,14.6546 29.1128,2.4407 64.9105,-9.4903 84.7189,-28.23592 14.4363,-13.66176 18.3486,-16.66667 21.6988,-16.66667 1.7823,0 5.2626,-1.77528 7.7338,-3.94508 6.3308,-5.55856 15.6038,-7.47736 21.8385,-4.51887 4.8032,2.2793 9.7469,8.67458 9.7561,12.6206 0,1.18618 -5.0893,7.48618 -11.3158,14 -6.2264,6.51384 -11.3264,12.28524 -11.3334,12.82544 -0.013,0.5401 -3.2737,4.8264 -7.2597,9.525 -3.986,4.6986 -9.7512,13.5231 -12.8116,19.6098 -5.8328,11.6008 -13.83,38.05125 -15.2836,50.54985 -1.1729,10.0846 1.3821,29.1558 4.4659,33.3333 3.6225,4.9075 11.5225,8.8951 21.4429,10.8237 19.3719,3.7661 66.1784,1.0838 75.8432,-4.3462 2.4252,-1.3626 6.5049,-2.4775 9.0661,-2.4775 2.5612,0 6.5106,-0.9587 8.7764,-2.1304 5.8026,-3.0006 17.0823,-1.4851 22.4283,3.0133 4.9665,4.179 5.3912,10.1387 0.9863,13.8389 -1.65,1.3861 -6.5896,5.5173 -10.977,9.1805 -4.4414,3.7085 -10.9096,7.6196 -14.5937,8.8247 -3.6392,1.1903 -9.9496,3.8273 -14.0231,5.86 -4.0734,2.0327 -9.2062,4.1153 -11.4062,4.628 -2.2,0.5127 -9.0126,2.7613 -15.1391,4.9969 -6.1264,2.2357 -12.1264,4.2098 -13.3333,4.3869 -4.1462,0.6086 -2.1843,3.8856 4.7737,7.9738 3.8324,2.2517 12.862,9.2852 20.0659,15.6299 13.2497,11.6695 21.706,23.2916 28.9661,39.8107 1.4667,3.3371 4.6207,9.2149 7.0091,13.0618 2.3882,3.8469 6.9849,14.3288 10.2148,23.293 5.5798,15.4866 6.3089,19.1264 9.5396,47.632 1.3441,11.8584 1.6406,114.1359 0.3596,124 -0.7143,5.5 -1.774,16 -2.3551,23.3333 -0.5809,7.3334 -2.6413,20.7659 -4.5788,29.85 -1.9373,9.0843 -3.5225,18.378 -3.5225,20.6531 0,5.8613 -7.115,40.3171 -12.4235,60.1636 -6.3948,23.908 -19.512,55.6266 -31.0391,75.0556 -4.2238,7.1194 -9.1596,15.8154 -10.9681,19.3243 -1.8087,3.5089 -5.1516,7.6788 -7.4289,9.2664 -2.2772,1.5876 -4.5968,3.6249 -5.1547,4.5272 -1.6944,2.7411 -18.5743,13.4292 -26.346,16.682 -6.3227,2.6465 -9.6401,3.064 -24.6397,3.1013 -16.2868,0.04 -17.8566,-0.19 -26,-3.8193 -4.7667,-2.1244 -14.575,-6.4539 -21.796,-9.6212 -8.4104,-3.6889 -16.5555,-8.5305 -22.6615,-13.4708 -42.0536,-34.0241 -62.2995,-70.7912 -68.8564,-125.0455 -0.7976,-6.6 -1.7093,-12.9 -2.026,-14 -2.2147,-7.692 -5.9619,-41.9945 -6.7729,-62 -1.7015,-41.9687 -0.2683,-59.7797 6.6794,-83.005 1.6994,-5.6806 3.5231,-13.0283 4.0528,-16.3283 0.5298,-3.3 2.4403,-11.3355 4.2456,-17.8567 1.8054,-6.5212 5.3008,-19.7212 7.7679,-29.3333 7.2405,-28.2117 21.914,-75.3767 26.6249,-85.581 9.0804,-19.669 18.2683,-32.6752 39.957,-56.5624 7.3844,-8.1329 27.5432,-20.1447 41.1185,-24.5009 3.9431,-1.2652 2.6376,-4.7066 -4.7788,-12.598 -16.6512,-17.718 -25.7368,-35.087 -29.0671,-55.5677 -2.307,-14.1887 -1.9149,-25.1168 1.2467,-34.7418 4.1724,-12.70215 4.4651,-14.86855 2.3011,-17.03265 -1.734,-1.734 -2.8799,-1.6838 -9.6679,0.4234 -4.2353,1.3149 -13.4311,3.3642 -20.4349,4.5541 -11.3194,1.92315 -13.9444,1.95225 -23.6255,0.2621 -20.0392,-3.4984 -41.3764,-17.6513 -60.6596,-40.2354 -14.2264,-16.6617 -23.5109,-34.40846 -30.2896,-57.89649 -3.0793,-10.66989 -4.7077,-44.59552 -2.976,-62 0.6567,-6.6 0.8948,-12.8294 0.5291,-13.84312 -0.5467,-1.51537 -3.2948,-1.63444 -15.4546,-0.66957 -22.0025,1.74588 -32.8821,1.45245 -38.8726,-1.04843 -2.8876,-1.20551 -10.0503,-3.19796 -15.917,-4.42769 -32.2853,-6.7674 -37.8753,-9.1644 -60,-25.72774 -15.6704,-11.73147 -26.9034,-26.60707 -33.863,-44.84413 -2.3035,-6.03602 -4.4318,-9.58796 -5.9163,-9.87386 -1.2752,-0.24558 -5.4465,0.74544 -9.2696,2.20228 -3.8231,1.45683 -9.9511,3.2731 -13.6177,4.03614 -3.6667,0.76302 -10.5667,2.32864 -15.3334,3.47912 -4.7666,1.15048 -11.6666,2.75429 -15.3333,3.564 -3.6667,0.80972 -20.9427,1.66098 -38.3912,1.89169 -17.4484,0.23072 -36.2387,1.14771 -41.756,2.03775 -12.9857,2.09481 -41.2948,0.9011 -51.9431,-2.1903 -13.843,-4.01889 -31.0568,-17.47513 -42.5382,-33.25281 -6.3867,-8.77633 -11.7443,-14 -14.3591,-14 -2.7301,0 -9.4072,1.51855 -56.3458,12.81484 -39.1484,9.42152 -68.6581,12.56584 -82.0174,8.73915 -5.1629,-1.4789 -6.5829,-1.42878 -10,0.35297 -2.1904,1.14213 -6.5624,2.08031 -9.7154,2.08483 -6.772,0.009 -11.4619,2.2203 -16.9338,7.98181 -2.2,2.31643 -5.9168,5.12256 -8.2594,6.23588 -2.3427,1.11331 -7.6276,4.97161 -11.7443,8.57403 -4.1166,3.6024 -8.2378,6.54982 -9.1581,6.54982 -0.9203,0 -5.5354,2.32711 -10.2557,5.17136 -4.7204,2.84426 -11.4623,6.14723 -14.9819,7.33995 -3.5197,1.19273 -8.9197,3.45513 -12,5.02756 -4.9585,2.53119 -18.7115,7.60229 -36.934,13.61855 -17.0918,5.643 -40.1305,8.81468 -64.152,8.83165 -15.4853,0.0107 -15.4853,0.0107 -18.8426,5.01094 -1.8466,2.75 -3.8782,5.98894 -4.5147,7.19765 -0.6365,1.20872 -7.7573,8.35048 -15.824,15.87059 -8.0666,7.5201 -18.1953,17.03116 -22.5081,21.13566 -12.0233,11.44263 -40.0033,27.38354 -67.4919,38.45183 -10.0722,4.0556 -38.0951,11.30904 -58.6666,15.18531 -11.4817,2.16345 -13.9582,3.06858 -14.1907,5.1865 -1.8889,17.19928 -6.9892,44.72578 -10.124,54.63908 -6.5979,20.8653 -18.361,45.49945 -26.3333,55.14705 -2.8907,3.4982 -7.1864,9.7712 -9.5459,13.94 -2.3595,4.1689 -4.9895,8.0082 -5.8445,8.532 -0.8549,0.5238 -4.5949,5.632 -8.3111,11.3516 -7.2987,11.2334 -29.7612,34.3425 -39.6072,40.7472 -3.3238,2.1621 -6.0433,4.4559 -6.0433,5.0972 0,0.6413 -4.35,4.4625 -9.6667,8.4916 -5.3167,4.029 -13.4154,10.1833 -17.9972,13.6762 -4.5818,3.4928 -9.8318,7.4286 -11.6667,8.7462 -1.8348,1.3175 -3.3361,3.3012 -3.3361,4.4081 0,1.1069 2.9428,5.6495 6.5395,10.0946 3.5967,4.4451 10.3033,15.6615 14.9036,24.9252 8.3937,16.9027 18.2034,34.1779 22.6677,39.9186 1.3154,1.6915 3.4121,6.1915 4.6593,10 1.2473,3.8085 3.9394,10.2687 5.9826,14.3559 5.9995,12.0018 17.1395,47.5258 19.2028,61.2353 3.07,20.3981 4.28,38.1323 3.8664,56.6667 -0.7234,32.4176 -1.2808,38.5212 -6.719,73.5728 -1.1582,7.4649 -1.7121,15.1413 -1.2309,17.0586 0.878,3.4983 -0.5484,13.1248 -4.1541,28.0352 -1.064,4.4 -2.7324,12.8 -3.7075,18.6667 -0.9751,5.8667 -2.7,13.0667 -3.8331,16 -1.1332,2.9334 -2.0866,7.1999 -2.1188,9.4812 -0.032,2.2815 -1.5661,8.8815 -3.4086,14.6667 -1.8426,5.7853 -3.7277,13.8188 -4.1892,17.8521 -0.8491,7.4218 -3.4325,15.2047 -9.0729,27.3334 -1.7052,3.6666 -4.4191,9.6666 -6.0309,13.3333 -11.8993,27.0696 -16.3363,34.5728 -26.0728,44.0907 -18.2257,17.8164 -31.9179,27.1486 -45.2841,30.8648 -10.1695,2.8273 -45.9297,7.1065 -57.3333,6.8608 -2.9334,-0.063 -9.2334,-1.0056 -14,-2.0943 z M 901.5939,887.27495 c 3.4414,-0.83304 6.7738,-1.97971 7.4052,-2.54815 0.6315,-0.56844 -0.1584,-4.95973 -1.7553,-9.75843 -2.0355,-6.11693 -4.2857,-9.93856 -7.5278,-12.78518 -2.5435,-2.23316 -5.0536,-4.06968 -5.5781,-4.08115 -0.5244,-0.012 -4.191,1.63853 -8.1478,3.66667 -8.2125,4.20942 -12.1269,9.54005 -12.1341,16.52426 -0.01,5.83267 2.3224,8.03684 9.7771,9.25539 8.5683,1.4006 11.2114,1.36036 17.9608,-0.27341 z m 196.0571,-122.9971 c 3.0275,-4.68143 5.9611,-9.63143 6.519,-11 0.5579,-1.36856 2.6313,-4.88829 4.6077,-7.82163 4.9468,-7.34225 9.6009,-25.9494 8.6549,-34.60216 -0.8775,-8.02694 -6.676,-22.7926 -10.7028,-27.25428 -3.9889,-4.41981 -18.1137,-13.47689 -21.0176,-13.47689 -1.3157,0 -3.8153,1.95 -5.5547,4.33333 -3.7391,5.12332 -14.3065,27.8957 -14.3065,30.83008 0,1.1219 -0.9,5.49515 -2,9.71834 -3.2068,12.31165 -2.6563,26.61093 1.3325,34.61553 6.1441,12.32949 17.4269,23.15249 24.1485,23.1644 1.9974,0.004 4.4124,-2.46597 8.319,-8.50672 z m 232.0693,-71.33217 c 3.0026,-3.58635 8.4941,-13.31788 12.2265,-21.66667 6.7412,-15.07927 6.7726,-15.21381 6.1904,-26.53337 -0.6794,-13.21035 -2.6091,-17.74207 -10.3915,-24.40358 -11.2747,-9.65066 -18.8934,-10.83838 -30.7438,-4.79277 -6.2412,3.18403 -15.5793,11.35397 -17.3603,15.18867 -0.6944,1.49505 -2.2406,4.51826 -3.4361,6.71826 -1.1954,2.2 -2.4355,7.11336 -2.7557,10.91859 -0.7209,8.56649 3.0066,17.06793 10.2646,23.41119 2.7293,2.38529 6.3064,6.55601 7.9491,9.26828 3.7485,6.18897 17.9468,18.18626 21.73,18.3614 0.4817,0.0223 3.3287,-2.8892 6.3268,-6.47 z m 441.0643,-24.69427 c 13.238,-8.32253 16.976,-11.80925 20.3459,-18.97856 3.347,-7.12055 3.5997,-17.30185 0.5138,-20.71164 -5.804,-6.41332 -18.8208,-0.55912 -28.0821,12.62969 -7.8084,11.11966 -14.8499,34.0156 -11.4935,37.37199 0.4866,0.48644 2.5567,-0.16356 4.6004,-1.44445 2.0436,-1.28088 8.3958,-5.27104 14.1155,-8.86703 z m -251.018,-33.28083 c 2.3268,-2.4671 6.7476,-6.07464 9.8241,-8.01673 5.809,-3.66701 7.4535,-8.20095 3.5219,-9.70964 -5.6136,-2.15416 -21.9283,10.73708 -21.9283,17.32696 0,6.29872 2.8916,6.43329 8.5823,0.39941 z m -374.5823,807.02662 c -39.0124,-2.0711 -48.7367,-3.2555 -58.6666,-7.146 -5.1334,-2.0112 -17.284,-6.2484 -27.0015,-9.416 -14.8776,-4.8497 -19.7872,-7.1929 -31.0854,-14.8359 -23.199,-15.6934 -45.5035,-41.1464 -56.3295,-64.2812 -3.672,-7.8469 -4.0869,-10.0662 -4.2266,-22.6099 -0.1331,-11.9481 0.5648,-16.8341 4.9508,-34.6588 2.8081,-11.4125 5.5649,-21.3896 6.1261,-22.1715 1.2125,-1.6893 6.3004,-14.683 7.6049,-19.4216 1.0494,-3.8118 9.6976,-13.3334 12.1104,-13.3334 1.7585,0 10.3614,-8.2383 25.8508,-24.7555 7.3195,-7.8052 13.7526,-12.9533 24,-19.2061 7.7,-4.6985 15.3903,-9.5973 17.0896,-10.8863 1.6993,-1.2889 7.9993,-3.9276 14,-5.8637 6.0007,-1.9362 13.0104,-4.6238 15.577,-5.9727 6.8633,-3.6068 32.6705,-10.649 39.0248,-10.649 1.8187,0 5.932,-0.9663 9.1409,-2.1473 11.5422,-4.248 62.6756,-4.9687 85.0459,-1.1987 7.0336,1.1854 20.2884,4.8822 29.4551,8.2152 9.1666,3.3331 20.2666,7.2676 24.6666,8.7436 4.4,1.4759 13.1097,4.659 19.3548,7.0735 10.0145,3.8718 12.4035,4.3059 20.2385,3.677 8.8836,-0.7131 8.8836,-0.7131 22.4785,8.4618 22.8897,15.4478 41.1175,36.1213 52.1744,59.1749 7.3157,15.2531 7.3191,23.1174 0.019,44.5138 -2.9073,8.5213 -5.2306,12.3944 -12.2595,20.4366 -4.7698,5.4575 -10.3508,12.1263 -12.4021,14.8195 -5.8488,7.6788 -34.8796,35.7396 -40.9202,39.5528 -2.9961,1.8914 -7.6756,5.4087 -10.3988,7.8163 -2.7232,2.4075 -7.3513,5.818 -10.2846,7.5789 -2.9333,1.7609 -9.2759,6.8911 -14.0945,11.4004 -4.8187,4.5094 -10.2187,8.9521 -12,9.8726 -1.7814,0.9204 -9.2388,5.7126 -16.5722,10.6491 -13.3137,8.9623 -34.097,20.0267 -37.618,20.0267 -1.0239,0 -4.454,1.1809 -7.6224,2.6244 -3.1685,1.4433 -8.0856,2.9201 -10.9269,3.2817 -10.3709,1.3197 -47.0079,1.6695 -66.4993,0.6348 z m 35.3691,-37.1422 c 10.6529,-1.4007 22.6529,-3.7325 26.6666,-5.1817 4.0137,-1.4492 10.4495,-3.3512 14.3018,-4.2266 3.8522,-0.8754 7.3376,-2.1314 7.7453,-2.7911 0.4077,-0.6596 1.9297,-1.1993 3.3824,-1.1993 3.6362,0 13.8661,-5.3441 35.3158,-18.4489 1.5674,-0.9576 17.142,-11.1982 27.8857,-18.3353 17.3018,-11.4939 45.6808,-44.4931 60.8927,-70.8064 9.858,-17.0522 11.7739,-21.9776 11.7739,-30.2685 0,-5.673 -0.7002,-7.7161 -4.028,-11.7534 -8.7532,-10.6192 -37.936,-25.9131 -54.0591,-28.3309 -3.5963,-0.5393 -10.3809,-2.7227 -15.0769,-4.8519 -4.696,-2.1293 -9.8051,-3.8832 -11.3537,-3.8977 -1.5486,-0.014 -7.9156,-1.8404 -14.1489,-4.0575 -26.8169,-9.5387 -51.4149,-14.0701 -81.9403,-15.0948 -28.4089,-0.9536 -47.3465,2.1769 -63.3931,10.4794 -1.8333,0.9485 -5.4333,2.1577 -8,2.687 -8.1136,1.6733 -49.454,23.2805 -63.3333,33.1022 -16.3986,11.6046 -26.0693,21.529 -37.2719,38.2495 -13.5483,20.2215 -13.5207,19.9505 -4.549,44.6605 8.1527,22.4543 10.0849,25.7729 22.3533,38.3926 14.0944,14.4979 29.8765,25.3486 48.0292,33.0214 7.6422,3.2302 16.1177,7.4833 18.8345,9.4514 6.7736,4.9068 14.919,8.9375 20.9165,10.3505 8.881,2.0924 38.8314,1.5089 59.0565,-1.1505 z m 61.2976,-82.1657 c -4.9298,-2.2908 -11.5325,-7.5301 -20.1454,-15.9858 -12.812,-12.5782 -12.812,-12.5782 -24.6666,-11.874 -69.875,4.1503 -83.9081,3.616 -109.8547,-4.1826 -24.696,-7.4227 -33.3333,-12.6796 -33.3333,-20.2874 0,-8.4433 4.6013,-8.8808 23.4328,-2.228 20.0081,7.0684 29.8263,8.6717 53.5648,8.7469 30.1668,0.096 82.1484,-4.6909 101.0024,-9.3004 32.3245,-7.9028 37.3499,-9.6418 42.6617,-14.7633 4.987,-4.8084 9.8523,-6.6918 17.287,-6.6918 4.9559,0 6.3698,0.6775 9.9683,4.776 2.5012,2.8486 3.9116,5.6733 3.4952,7 -0.384,1.2232 -1.0348,9.3239 -1.4463,18.0016 -0.6343,13.3745 -1.3664,17.3345 -4.8069,26 -5.0428,12.7012 -5.4104,13.1353 -14.4464,17.0597 -4.0586,1.7627 -9.0779,4.0954 -11.154,5.1838 -6.419,3.3653 -22.812,2.6096 -31.5586,-1.4547 z m 402,91.3458 c -24.7136,-2.9691 -32.77,-4.3402 -43.1109,-7.3368 -6.1531,-1.7831 -12.3186,-3.242 -13.7011,-3.242 -1.3825,0 -10.7655,-3.0491 -20.8509,-6.7758 -21.0192,-7.7668 -49.758,-22.0941 -57.3458,-28.5889 -5.6721,-4.8553 -25.6389,-33.9573 -31.996,-46.6353 -7.509,-14.9751 -10.407,-39.2237 -6.4866,-54.2752 5.3196,-20.4231 10.7021,-34.719 17.4668,-46.3915 4.0374,-6.9667 7.3446,-13.3683 7.3493,-14.2259 0,-0.8575 2.8744,-4.7575 6.3771,-8.6666 3.5028,-3.9091 7.9229,-9.524 9.8226,-12.4774 2.4086,-3.7448 6.0298,-6.7096 11.9647,-9.7962 4.6809,-2.4344 13.8385,-7.7706 20.3501,-11.8582 12.7747,-8.0191 22.6911,-12.102 41.494,-17.0843 6.6,-1.7488 17.4,-4.6811 24,-6.5161 7.2266,-2.0093 15.9779,-3.4136 22,-3.5303 10.9871,-0.2129 48.357,4.4816 60.0875,7.5483 4.0815,1.067 8.4791,1.94 9.7725,1.94 3.7903,0 28.0762,10.1416 47.3019,19.7528 9.2609,4.6297 32.9123,22.541 35.5048,26.888 1.4667,2.4593 4.8461,6.7712 7.5099,9.582 4.5989,4.853 5.259,5.1106 13.0945,5.1106 8.2515,0 8.2515,0 16.5215,8.3333 4.5484,4.5833 17.5558,16.8307 28.9053,27.2165 27.5711,25.2297 26.3357,24.0029 28.6213,28.4227 2.8259,5.4647 5.9711,19.541 5.9944,26.8285 0.027,8.1563 -1.6693,12.7265 -10.5246,28.3681 -10.6115,18.7436 -27.6382,36.9983 -43.4556,46.5898 -5.7088,3.4617 -32.7012,16.3599 -36.6667,17.5209 -1.8333,0.5368 -8.5685,3.0142 -14.9672,5.5053 -10.8053,4.2068 -21.8573,6.8529 -41.6995,9.984 -4.4,0.6944 -10.7,2.1033 -14,3.131 -10.8793,3.3881 -63.9994,6.5208 -79.3333,4.6787 z m 35.6419,-26.6589 c 36.3645,-5.3037 53.0646,-9.0176 80.3581,-17.8711 23.4164,-7.5958 47.1288,-27.4395 64,-53.5582 9.2009,-14.2442 9.3399,-14.5932 9.7984,-24.5944 0.4649,-10.1452 0.4649,-10.1452 -9.4907,-22.0207 -12.4622,-14.8654 -14.8505,-17.0284 -29.641,-26.8448 -24.4968,-16.2585 -38.9112,-23.1769 -53.9447,-25.8916 -4.0637,-0.7338 -12.4887,-2.7835 -18.722,-4.5548 -9.5208,-2.7055 -12.1592,-4.0958 -16.4975,-8.6935 -4.7342,-5.0172 -5.1006,-5.9369 -4.4005,-11.0451 0.8425,-6.1467 0.2201,-7.7513 -3.8329,-9.8824 -5.9718,-3.1398 -25.3663,-7.0611 -42.0871,-8.5096 -22.6023,-1.9579 -32.1109,-0.6397 -66.5153,9.2217 -19.2471,5.5168 -42.8299,19.2133 -56.4175,32.7664 -13.3329,13.2991 -18.9731,21.6988 -27.1503,40.4342 -12.5708,28.8021 -13.053,50.8355 -1.3756,62.8459 2.3522,2.4192 7.5822,9.3214 11.622,15.3383 5.1748,7.707 9.3119,12.2065 14,15.2265 3.6602,2.3577 9.2519,6.1623 12.4262,8.4546 3.1742,2.2923 10.9742,6.4659 17.3333,9.2747 12.6951,5.6075 48.8541,16.6114 63.5619,19.3431 11.5352,2.1425 43.9429,2.4615 56.9752,0.5608 z m 50.5678,-53.2978 c -11.7422,-3.0758 -24.2584,-11.4357 -31.3061,-20.9105 -15.3297,-20.6093 -11.1581,-18.1998 -37.0663,-21.4093 -25.2862,-3.1325 -72.1745,-11.0204 -83.8373,-14.1037 -4.0333,-1.0663 -10.3333,-2.6135 -14,-3.4383 -9.7585,-2.1952 -22.82,-8.9611 -26.0464,-13.4922 -6.0039,-8.4316 -5.8831,-17.2681 0.236,-17.2681 1.5193,0 6.4483,1.7441 10.9531,3.8758 19.7348,9.3384 46.5732,15.1684 80.8573,17.5643 11.3667,0.7943 29.0667,2.8536 39.3333,4.576 10.2667,1.7225 22.8667,3.5324 28,4.022 21.3758,2.0388 65.7218,-4.5098 76.9664,-11.3656 5.6756,-3.4605 9.4144,-3.3709 13.671,0.3275 6.8913,5.9878 5.296,16.2599 -4.6075,29.6666 -2.1669,2.9334 -4.8624,8.0334 -5.9901,11.3334 -3.2264,9.4417 -7.355,15.0884 -16.9319,23.158 -8.8264,7.4372 -13.8797,10.2429 -18.1947,10.1019 -1.2356,-0.04 -6.6521,-1.2274 -12.0368,-2.6378 z"
    />
  </g>
</svg>
