<?xml version="1.0" encoding="UTF-8" standalone="no"?>
<!-- Created with Inkscape (http://www.inkscape.org/) -->

<svg
   version="1.1"
   id="svg1"
   width="950.88116"
   height="999.72363"
   viewBox="0 0 950.88116 999.72363"
   sodipodi:docname="regular james.svg"
   inkscape:version="1.3 (0e150ed, 2023-07-21)"
   xmlns:inkscape="http://www.inkscape.org/namespaces/inkscape"
   xmlns:sodipodi="http://sodipodi.sourceforge.net/DTD/sodipodi-0.dtd"
   xmlns="http://www.w3.org/2000/svg"
   xmlns:svg="http://www.w3.org/2000/svg">
  <defs
     id="defs1" />
  <sodipodi:namedview
     id="namedview1"
     pagecolor="#ffffff"
     bordercolor="#000000"
     borderopacity="0.25"
     inkscape:showpageshadow="2"
     inkscape:pageopacity="0.0"
     inkscape:pagecheckerboard="0"
     inkscape:deskcolor="#d1d1d1"
     inkscape:zoom="0.6675088"
     inkscape:cx="644.18626"
     inkscape:cy="510.85469"
     inkscape:window-width="1680"
     inkscape:window-height="997"
     inkscape:window-x="0"
     inkscape:window-y="25"
     inkscape:window-maximized="1"
     inkscape:current-layer="g1"
     showguides="true">
    <sodipodi:guide
       position="82.745763,788.17998"
       orientation="1,0"
       id="guide1"
       inkscape:locked="false" />
    <sodipodi:guide
       position="80.897809,1091.1082"
       orientation="0,-1"
       id="guide2"
       inkscape:locked="false" />
  </sodipodi:namedview>
  <g
     inkscape:groupmode="layer"
     inkscape:label="Image"
     id="g1"
     transform="translate(-2,-0.0443943)">
    <path
       style="fill:currentColor"
       d="m 452.84605,997.98611 c -3.95861,-1.94245 -8.06295,-4.75939 -9.12076,-6.25987 -1.05782,-1.50047 -3.84264,-7.67813 -6.1885,-13.72813 -2.34586,-6.05 -6.43076,-16.175 -9.07755,-22.5 -6.86977,-16.41659 -6.59028,-15.43867 -8.90316,-31.15107 -2.30555,-15.66257 -2.78078,-17.84893 -3.87971,-17.84893 -0.40282,0 -2.50999,3.67124 -4.68262,8.15831 -2.17262,4.48707 -5.63772,10.58205 -7.70022,13.5444 -2.0625,2.96236 -3.75,5.72818 -3.75,6.14628 0,1.04766 -5.82011,7.07459 -10.02651,10.38281 -5.3558,4.21219 -9.55818,3.47629 -21.69741,-3.7995 -4.51582,-2.70662 -8.95727,-13.34545 -15.73144,-37.6823 -0.88028,-3.1625 -1.92544,-5.74807 -2.32257,-5.74571 -0.39714,0.002 -2.50438,3.48986 -4.68276,7.75 -6.38257,12.48204 -11.16067,19.47205 -16.26165,23.7896 -7.01641,5.93882 -10.24978,7.98023 -15.32869,9.6779 -4.13869,1.38339 -5.04474,1.36778 -10,-0.17235 -7.80437,-2.42564 -9.9751,-3.70512 -14.23077,-8.38796 -6.43691,-7.08303 -7.63785,-10.7363 -8.79899,-26.76656 -1.20188,-16.59271 -1.61746,-19.19944 -2.93141,-18.38738 -0.52447,0.32414 -2.96576,3.69986 -5.42509,7.5016 -6.12156,9.46296 -11.14419,12.99412 -18.46275,12.98024 l -5.59996,-0.0106 -4.4424,-7.73938 c -11.63107,-20.26321 -18.68014,-38.38494 -20.51952,-52.75153 -0.67678,-5.286 -1.74864,-10.89678 -2.2486,-11.77047 -0.24631,-0.43045 -2.03119,0.19594 -3.96639,1.39196 -3.35922,2.07611 -3.84052,2.11383 -10.6284,0.83305 -11.01837,-2.07901 -12.41598,-3.98493 -18.19242,-24.80884 -4.09652,-14.76782 -4.4283,-17.73834 -4.56201,-40.84513 -0.0908,-15.697 0.28955,-23.88521 1.36058,-29.28842 6.49595,-32.77137 15.0344,-72.70578 19.67069,-92 4.4302,-18.43656 5.02861,-22.45682 5.03339,-33.81538 0.007,-16.11428 3.68718,-38.15251 7.33706,-43.9343 1.58966,-2.51818 3.69817,-4.47328 5.24223,-4.86081 2.54685,-0.63922 9.86962,-0.027 14.06939,1.1763 1.66932,0.47828 2.31366,0.0905 2.86544,-1.72439 0.39152,-1.28778 2.66866,-6.50617 5.06031,-11.59641 4.73997,-10.08826 4.94075,-10.25549 15.42065,-12.84418 10.50723,-2.59543 12.58852,-2.69609 18.18531,-0.87958 10.53695,3.41992 17.57131,8.82357 25.51655,19.60128 3.18898,4.32584 6.09869,7.86794 6.46602,7.87132 0.36733,0.003 1.84293,-3.5222 3.2791,-7.83464 2.94894,-8.85487 5.63017,-11.99574 12.88593,-15.09491 6.30604,-2.69353 9.65069,-2.60373 16.06635,0.43137 5.2263,2.47243 10.17018,7.18701 23.06526,21.99545 l 5.96452,6.84954 2.35556,-5.42033 c 2.72174,-6.26295 9.01717,-13.20814 14.57466,-16.07892 3.36278,-1.73708 4.25483,-1.82969 6.93414,-0.71988 2.27464,0.94219 3.1746,0.97446 3.45809,0.124 0.21077,-0.63231 1.36541,-2.59329 2.56586,-4.35772 4.40592,-6.47584 14.91472,-7.48025 23.47435,-2.24364 5.02075,3.07159 6.2156,5.02624 15.46314,25.29618 l 4.30687,9.44034 8.09622,-13.49244 c 4.45293,-7.42084 8.39633,-14.85883 8.76313,-16.52885 0.4504,-2.05062 2.18872,-4.14396 5.3544,-6.4479 9.50421,-6.91704 11.56084,-7.90108 16.5242,-7.90638 8.84848,-0.009 11.84155,2.79657 19.70034,18.46908 2.475,4.93581 4.98922,9.11138 5.58716,9.27905 0.59794,0.16767 4.19794,-2.70661 8,-6.38728 9.38775,-9.08805 16.2001,-14.36599 18.54248,-14.36599 2.97222,0 9.00166,3.43874 12.55839,7.16237 3.60333,3.77241 6.54453,10.08729 8.85988,19.02251 2.04786,7.90298 4.4342,13.81512 5.57624,13.81512 0.49885,0 4.16249,-2.64787 8.14142,-5.88415 9.09662,-7.39877 21.33581,-14.46183 29.6147,-17.09023 8.01094,-2.54333 8.17466,-2.53821 14.04938,0.43873 5.09226,2.58044 7.69072,5.88686 10.63746,13.53565 0.95351,2.475 2.08405,4.89557 2.51231,5.37904 0.42826,0.48347 5.73876,-3.62832 11.80111,-9.13731 14.01241,-12.73339 17.76116,-14.65347 26.73342,-13.69262 5.19505,0.55634 7.30718,1.30211 9.67201,3.41509 2.79713,2.49923 3.06123,3.31982 3.49827,10.86956 0.3402,5.87661 0.84438,8.16624 1.79823,8.16624 0.72902,0 5.95871,-4.03655 11.62152,-8.9701 11.46484,-9.9884 19.37313,-14.73607 26.07669,-15.65489 5.98783,-0.82073 7.73842,1.03809 11.06203,11.74596 2.86637,9.23474 3.50012,13.99731 4.05641,30.48345 0.21279,6.30604 0.92286,12.13959 1.64326,13.5 1.05727,1.99657 7.20964,10.16163 8.96332,11.89558 4.36876,4.31961 13.28703,19.52929 16.41793,28 1.52467,4.125 4.06833,10.7078 5.65259,14.62845 6.3232,15.64837 10.44665,30.51801 12.99779,46.87155 0.429,2.75 0.81285,10.18497 0.853,16.52216 0.0724,11.43365 0.0494,11.55079 -2.9998,15.25 -2.85896,3.46841 -3.4505,3.72784 -8.5,3.72784 h -5.4272 v 3.63527 c 0,1.9994 1.09251,9.0869 2.42779,15.75 4.33651,21.63925 4.96673,28.74083 3.59697,40.53215 -1.36291,11.73233 -2.50856,19.30185 -3.49356,23.08258 -0.35823,1.375 -1.02229,5.24491 -1.47569,8.59979 -1.33722,9.89466 -3.53897,12.40021 -10.89665,12.40021 -3.51494,0 -4.43122,-0.54774 -7.95312,-4.75427 -2.18928,-2.61485 -5.58528,-7.4924 -7.54667,-10.839 -1.96139,-3.3466 -4.25674,-6.65786 -5.10078,-7.35836 -1.6819,-1.39585 -2.03383,-0.93076 -2.99014,3.95163 -2.11895,10.81818 -11.90597,40.65874 -16.56285,50.5 -2.08208,4.4 -5.68756,12.5 -8.01219,18 -5.79136,13.70221 -11.30151,21.839 -17.64189,26.05162 -13.4038,8.90565 -20.84713,7.19007 -27.3406,-6.30162 -1.91916,-3.9875 -3.80134,-7.25 -4.18261,-7.25 -0.61827,0 -1.83645,2.76942 -2.41928,5.5 -0.68197,3.19508 -6.73053,17.8922 -9.46558,23 -1.76704,3.3 -4.05614,7.56552 -5.08689,9.47893 -3.5042,6.50494 -13.50379,9.57311 -21.38746,6.5623 -5.23719,-2.0001 -8.06437,-5.24554 -9.51423,-10.92178 -0.57872,-2.2657 -2.33742,-8.16945 -3.90822,-13.11945 -1.5708,-4.95 -3.86148,-12.2625 -5.09041,-16.25 -1.22893,-3.9875 -2.78238,-7.25 -3.4521,-7.25 -1.1857,0 -6.71593,13.02758 -8.49662,20.01552 -1.13211,4.44272 -8.58313,30.52073 -9.85291,34.48448 -4.14637,12.94322 -9.10258,22.13845 -14.13885,26.2317 -6.41037,5.21006 -17.10361,6.92961 -24.32619,3.91183 -1.88678,-0.78835 -6.66276,-4.58334 -10.61329,-8.43331 -6.82853,-6.65471 -7.42352,-7.61077 -12.06402,-19.3851 -2.68469,-6.81184 -5.66296,-15.19685 -6.6184,-18.63335 -0.95543,-3.4365 -2.09884,-5.88649 -2.54091,-5.44442 -0.44207,0.44207 -1.67617,4.16726 -2.74244,8.27821 -5.13133,19.78359 -13.35985,38.32658 -19.23874,43.35458 -4.01396,3.433 -13.21313,7.00435 -18.87147,7.32645 -4.64124,0.2642 -6.62381,-0.2383 -12.69748,-3.21859 z m 17.0425,-15.10429 c 4.21173,-4.54216 12.43229,-20.73445 15.99576,-31.50734 1.88777,-5.707 5.43881,-15.55137 7.89121,-21.87637 6.44194,-16.61452 8.73036,-24.88207 9.65207,-34.87087 0.4483,-4.85833 1.13963,-9.35844 1.53628,-10.00024 0.39666,-0.64181 2.97737,-2.31021 5.73491,-3.70756 4.77478,-2.41956 5.13434,-2.46161 7.54487,-0.88217 2.36548,1.54993 2.48895,2.02836 1.88636,7.30966 -1.45893,12.7866 -1.76423,29.22662 -0.69235,37.28133 1.34254,10.08862 7.02267,26.8872 13.50393,39.93696 6.40175,12.88966 9.38638,16.90967 13.86455,18.67424 4.6031,1.8138 5.795,1.05189 9.36001,-5.98333 2.1576,-4.25782 4.64197,-11.15188 15.949,-44.25802 2.1566,-6.31435 6.25302,-26.51357 9.43025,-46.5 0.65575,-4.125 2.45943,-12.84479 4.00818,-19.37731 2.69826,-11.38101 3.01804,-12.08419 7.65294,-16.82845 5.17646,-5.29861 9.06884,-7.79424 12.15651,-7.79424 2.35571,0 3.15369,3.94134 3.16949,15.65462 0.0252,18.67562 3.83881,43.29547 10.02662,64.72995 3.25568,11.27761 4.30398,12.92398 6.40659,10.06168 1.55418,-2.11571 8.01039,-17.75843 11.94696,-28.94625 5.65729,-16.07815 8.74614,-34.01025 7.93113,-46.0437 -0.47836,-7.06294 -0.31638,-8.1562 1.44263,-9.73659 2.64492,-2.37634 7.28387,-3.62387 9.89022,-2.65972 2.32045,0.85839 2.74794,2.44015 4.30792,15.94001 2.15062,18.61111 3.20561,25.77727 4.71101,32 2.13944,8.84363 8.14722,22.70655 10.18499,23.50183 2.5347,0.98922 10.61772,-8.40978 14.78567,-17.19292 4.35947,-9.1867 8.36715,-20.65991 11.8097,-33.80891 1.43996,-5.5 3.04474,-11.575 3.56618,-13.5 4.02135,-14.84572 9.22166,-38.09808 9.92688,-44.38652 0.46938,-4.18544 0.62086,-11.33736 0.33664,-15.89316 -0.51272,-8.21824 -0.49578,-8.29283 2.1576,-9.50179 4.41345,-2.0109 7.14895,-1.41751 12.32441,2.67346 5.18223,4.09631 5.45181,4.59975 9.69666,18.10801 2.71562,8.64187 6.91439,17 8.54008,17 2.03318,0 2.2409,-10.49874 0.59356,-30 -3.6998,-43.79823 -4.47613,-47.5751 -14.0802,-68.5 -2.0195,-4.4 -4.53186,-9.88781 -5.58303,-12.19514 -1.05116,-2.30732 -1.91121,-5.36275 -1.91121,-6.78983 0,-1.42709 -0.94247,-4.4421 -2.09438,-6.70002 -2.73783,-5.3666 -1.75077,-7.45576 5.30843,-11.2356 5.96008,-3.19132 8.76004,-2.98863 8.82984,0.63921 0.0799,4.15319 2.52791,9.33633 11.28114,23.88549 9.06903,15.07407 12.31402,19.59017 13.33946,18.56474 1.29381,-1.29381 -1.60031,-25.54891 -4.1162,-34.49711 -6.52658,-23.21289 -18.82076,-46.65388 -35.3054,-67.31584 -7.42044,-9.30084 -10.9775,-12.05121 -18.63016,-14.40514 -3.238,-0.99599 -7.19167,-2.90847 -8.78592,-4.24994 -3.41793,-2.876 -5.96091,-7.38404 -5.00379,-8.87042 1.58954,-2.46853 8.12186,-4.7422 15.13964,-5.26958 l 7.46265,-0.56082 0.75224,-3.5 c 1.54483,-7.18784 1.32237,-16.92865 -0.42656,-18.67759 -1.52337,-1.52336 -1.91851,-1.43464 -5.44676,1.2229 -8.66191,6.5243 -28.69331,29.35565 -33.41962,38.09095 -1.74494,3.22506 -3.65165,6.47291 -4.23713,7.21744 -1.23522,1.5708 -7.89551,1.01527 -10.13769,-0.84557 -2.09467,-1.73843 -2.83741,-8.92298 -1.61385,-15.61095 4.20104,-22.96293 4.40585,-24.60428 3.51744,-28.18973 -1.51642,-6.11997 -3.63881,-5.42839 -13.63796,4.44396 -9.06138,8.94648 -23.77542,27.40309 -23.77542,29.8228 0,2.33205 -5.67957,7.52579 -8.22977,7.52579 -2.87345,0 -11.37519,-5.39334 -12.85222,-8.1532 -0.75545,-1.41156 -0.58022,-3.47377 0.64917,-7.64012 1.02612,-3.47747 1.73252,-9.61299 1.80836,-15.70668 l 0.12446,-10 -3,0.32093 c -6.40864,0.68557 -18.99891,8.83038 -31.19979,20.18356 -7.71356,7.17763 -10.28413,10.57151 -10.29362,13.59052 -0.01,3.18105 -3.5592,5.81405 -7.67972,5.69725 -5.88979,-0.16695 -7.11083,-2.31741 -8.26415,-14.5545 -2.13014,-22.60169 -7.36179,-32.33573 -13.96736,-25.98776 -5.32201,5.11446 -15.37623,19.03387 -18.49373,25.60337 -3.96143,8.34793 -4.34924,8.74479 -8.66549,8.86751 -2.24392,0.0638 -4.08939,-0.9332 -7.06582,-3.81726 -2.21576,-2.14699 -4.54527,-4.80362 -5.1767,-5.90362 -0.63142,-1.1 -1.3833,-8.15847 -1.67083,-15.68548 -0.51454,-13.46961 -0.56912,-13.73383 -3.45988,-16.75 -5.39757,-5.63175 -12.25827,-3.19612 -21.21056,7.53 -4.57595,5.48264 -12.35235,17.21657 -12.35235,18.63865 0,1.51692 -7.03541,15.67068 -8.12378,16.34333 -2.087,1.28984 -8.13331,-0.81397 -11.76254,-4.09277 -2.28388,-2.06334 -4.28214,-5.09238 -5.07541,-7.69349 -3.02814,-9.92913 -7.37047,-20.3644 -9.86548,-23.70819 -4.93069,-6.60807 -7.51994,-7.56479 -10.7678,-3.97866 -1.67845,1.85326 -1.96445,4.22782 -2.40499,19.9679 -0.56633,20.23448 -0.97514,21.36649 -7.62581,21.11646 -6.0015,-0.22562 -5.98102,-0.1676 -7.32,-20.73747 -0.89148,-13.69509 -2.32262,-19.8608 -4.4457,-19.15311 -0.57578,0.19193 -2.56326,4.59108 -4.41662,9.77589 -2.69486,7.5389 -3.46762,11.42976 -3.85838,19.42694 -0.56848,11.63433 -1.62007,15.10413 -4.82109,15.90753 -2.96435,0.74401 -8.16746,-0.28698 -9.48987,-1.88039 -0.56228,-0.6775 -1.27522,-4.11077 -1.5843,-7.62948 -0.30908,-3.51871 -1.48113,-10.32158 -2.60455,-15.11748 -1.88788,-8.05936 -2.51555,-9.27122 -8.28708,-16 -8.5544,-9.97318 -17.04266,-17.78018 -19.33175,-17.78018 -3.9038,0 -8.51197,8.29996 -10.29598,18.5445 -1.27541,7.32392 -0.68372,22.3136 1.06204,26.90529 0.5605,1.47423 1.01909,5.78006 1.01909,9.56852 v 6.8881 l -4.75,2.12997 c -7.11832,3.19196 -8.617,1.94123 -13.22425,-11.03638 -5.27052,-14.84587 -7.4578,-18.65657 -14.3219,-24.95177 -3.32731,-3.05153 -10.68739,-9.93573 -16.35575,-15.29823 -5.75139,-5.44105 -11.16346,-9.75 -12.24606,-9.75 -2.91716,0 -7.72687,3.09488 -9.5156,6.12296 -2.48569,4.20793 -1.76091,25.08943 1.93501,55.74966 0.3068,2.54506 0.20247,5.09673 -0.23182,5.67038 -0.4343,0.57364 -3.34437,2.31815 -6.46682,3.87668 -10.53999,5.26088 -12.41045,2.78478 -15.80288,-20.91968 -3.08346,-21.54549 -4.95857,-27.50499 -8.2561,-26.23961 -1.47255,0.56507 -4.76723,16.02382 -4.75825,22.32587 0.008,5.93788 1.92866,11.62454 4.74132,14.04138 2.33702,2.00815 2.46998,2.57329 1.76954,7.52182 -0.41654,2.9428 -0.81564,7.66557 -0.88689,10.49506 -0.0765,3.03645 -0.76982,5.90483 -1.69206,7 -4.39683,5.22123 -7.53283,13.34994 -10.98491,28.47353 -1.17782,5.16007 -2.95907,12.08195 -3.95831,15.38195 -0.99925,3.3 -2.79623,10.5 -3.99328,16 -1.19706,5.5 -2.83052,12.38301 -3.62991,15.29558 -1.95155,7.11037 -3.30639,26.80772 -3.34191,48.58639 -0.0257,15.74807 0.19477,18.25404 1.84746,21 1.25691,2.08836 2.05143,5.84498 2.40597,11.37575 0.55414,8.64464 3.17612,15.74228 5.81544,15.74228 3.37177,0 11.54089,-21.35849 13.99315,-36.58563 0.95216,-5.91235 3.47656,-9.91437 6.25382,-9.91437 0.73976,0 2.2012,-0.94607 3.24764,-2.10238 2.5417,-2.80855 6.73665,-4.89762 9.83464,-4.89762 6.51292,0 7.4708,12.29265 1.83218,23.51266 -1.65492,3.29304 -3.51531,8.37199 -4.13421,11.28656 -2.14742,10.11289 -0.78709,41.83311 2.43162,56.70078 2.9457,13.60658 7.91851,27.49827 9.84499,27.5023 1.53105,0.003 15.38805,-14.69537 17.25189,-18.29963 1.43147,-2.76816 3.95369,-10.42693 4.9832,-15.13159 0.24927,-1.1391 0.78007,-6.21681 1.17957,-11.28382 0.60589,-7.68484 1.09595,-9.55707 2.95491,-11.28895 1.22571,-1.14192 2.22856,-2.99331 2.22856,-4.11419 0,-1.12088 1.31538,-3.35335 2.92308,-4.96104 4.57645,-4.57646 10.67804,-3.71448 12.97593,1.83312 0.67115,1.62029 2.44181,3.31143 4.13715,3.95135 1.63011,0.6153 2.96384,1.84404 2.96384,2.73055 0,0.88651 -1.60577,4.80046 -3.56837,8.69767 -5.52323,10.96766 -7.42882,23.0315 -7.49542,47.45166 -0.0528,19.34617 0.038,20.29733 2.46087,25.77576 2.74084,6.19753 7.74245,13.80841 11.45961,17.43794 2.11189,2.06209 2.57934,2.15559 4.5,0.90002 3.48588,-2.27878 10.15285,-14.02607 15.6402,-27.55824 2.81971,-6.9536 6.41357,-15.34291 7.98636,-18.64291 4.78567,-10.04123 7.16731,-18.51713 8.1487,-29 0.83498,-8.91895 1.22979,-10.28907 3.65212,-12.67399 3.8471,-3.78769 9.40971,-4.20097 11.21218,-0.83301 0.58665,1.09615 1.71263,9.30865 2.5022,18.25 1.50491,17.04215 3.208,27.48849 6.59809,40.47094 1.11824,4.28233 2.18889,8.46106 2.37922,9.28606 0.19033,0.825 1.51249,5.04906 2.93814,9.3868 5.41044,16.46208 9.6435,19.2427 17.29871,11.3632 6.65489,-6.84986 16.12274,-28.36122 18.81566,-42.75 1.07241,-5.73006 4.51765,-16.68054 5.79963,-18.43375 1.39276,-1.90472 13.10109,-4.88226 15.81323,-4.02146 2.54925,0.8091 2.80957,2.53469 3.31204,21.95521 0.43591,16.84835 1.19995,21.80865 6.00716,39 0.92278,3.3 1.79591,6.45 1.94028,7 1.91836,7.30807 3.56257,12.36358 8.29339,25.5 6.02822,16.73895 9.15227,23.66456 12.96875,28.75 2.94867,3.92909 3.57183,3.98819 6.68227,0.63371 z M 420.54353,761.43618 c -15.04825,-1.17346 -26.22576,-3.39709 -38.4646,-7.65207 -12.24211,-4.25612 -15.32059,-5.8095 -28.00515,-14.13123 -11.00578,-7.22036 -26.46362,-21.96165 -32.91843,-31.3925 -3.6195,-5.2883 -3.8021,-5.88868 -2.64246,-8.68831 2.34394,-5.65875 8.20992,-5.30876 12.40167,0.73994 2.4959,3.60158 18.92876,20.07842 24.74316,24.80937 8.64727,7.03596 25.34931,14.89856 39.38581,18.54115 8.44527,2.19162 10.695,2.32796 36.5,2.21189 15.125,-0.068 33.575,-0.65988 41,-1.31522 23.24315,-2.05149 28.75235,-2.33013 32.42996,-1.64021 3.11267,0.58394 3.57004,1.03898 3.57004,3.55185 0,4.04814 -3.82754,6.73967 -10.80157,7.59568 -3.13414,0.38469 -6.82343,1.12679 -8.19843,1.6491 -1.375,0.52232 -6.775,2.08731 -12,3.47776 -8.15706,2.17071 -12.04451,2.57131 -27.5,2.83382 -9.9,0.16816 -23.175,-0.0978 -29.5,-0.59102 z M -32.456475,494.49811 c 0,-0.73333 0.3,-1.03333 0.666667,-0.66667 0.366667,0.36667 0.366667,0.96667 0,1.33334 -0.366667,0.36666 -0.666667,0.0667 -0.666667,-0.66667 z m 318.500005,-2.00673 c -10.39512,-0.81473 -13.4066,-1.55331 -30.76568,-7.54537 -13.55846,-4.68016 -20.6698,-8.63847 -30.01288,-16.70577 -7.57596,-6.54147 -17.76911,-19.36538 -21.63588,-27.21989 -2.81899,-5.72619 -3.08556,-7.12489 -3.08556,-16.19013 0,-9.37964 3.03096,-25.47132 5.99575,-31.83211 0.51272,-1.1 1.96092,-4.54043 3.21823,-7.64539 1.91397,-4.7266 4.40266,-7.67578 15.2914,-18.12085 8.49963,-8.15331 16.46805,-14.70233 23,-18.90306 11.91198,-7.66065 29.61258,-14.76333 43.49462,-17.453 15.43516,-2.99058 21.2895,-3.67481 32,-3.74001 23.77257,-0.14472 29.25494,0.99109 60,12.43054 8.15553,3.03447 13.49679,4.39899 18.36597,4.69192 8.96009,0.53904 14.80795,4.1649 27.63403,17.13395 7.17671,7.25671 10.53974,11.59207 13.75152,17.72742 5.16647,9.86933 6.0046,14.87843 3.87824,23.17842 -2.31753,9.04623 -4.92427,13.50796 -14.15766,24.23247 -10.17052,11.81297 -18.4698,19.51819 -33.7641,31.34729 -27.51329,21.27965 -38.24664,28.0345 -52.08651,32.77979 -7.97763,2.73529 -8.51119,2.78244 -30.12149,2.66189 -12.1,-0.0675 -26.05,-0.44015 -31,-0.82811 z m 42,-21.42144 c 6.10601,-1.33586 10.71849,-2.61024 24,-6.63095 1.65,-0.4995 6.15,-2.77703 10,-5.06117 3.85,-2.28414 7.9,-4.66516 9,-5.29116 7.91225,-4.50273 20.66263,-13.86797 25.84397,-18.98258 8.84485,-8.73092 20.98852,-24.08585 25.07404,-31.70457 0.70826,-1.32077 2.47895,-4.60592 3.93487,-7.30034 1.88692,-3.49206 2.64712,-6.37932 2.64712,-10.05383 0,-4.55506 -0.39778,-5.54044 -3.41846,-8.4682 -1.88015,-1.82231 -4.29159,-3.82309 -5.35875,-4.44616 -7.37769,-4.30758 -14.57115,-7.63501 -19.72279,-9.12304 -3.3,-0.95319 -9.15,-2.77166 -13,-4.04104 -3.85,-1.26939 -11.05,-3.51103 -16,-4.98143 -4.95,-1.4704 -10.125,-3.08056 -11.5,-3.57813 -4.66232,-1.68717 -29.19561,-4.90924 -37.36916,-4.90786 -10.9733,0.002 -22.9595,2.24076 -31.53711,5.89086 -3.90155,1.66026 -7.09373,2.82609 -7.09373,2.59074 0,-0.23535 -5.347,2.25724 -11.88223,5.53909 -15.59178,7.82986 -28.38515,16.35707 -34.80679,23.1999 -7.61249,8.11179 -15.31098,20.32587 -15.31098,24.29174 0,4.19868 6.56813,21.80311 10.06847,26.9863 3.2998,4.88625 12.79881,13.99025 19.05916,18.26662 2.5452,1.73859 9.2952,5.48626 15,8.32815 5.7048,2.84188 11.49737,5.95554 12.87237,6.91924 6.11536,4.28606 10.71061,5.06282 27,4.56396 8.525,-0.26108 18.65,-1.16385 22.5,-2.00614 z m 27.46515,-46.52954 c -1.94417,-1.02812 -6.76724,-4.86201 -10.71794,-8.51975 l -7.18308,-6.65043 -25.28207,0.70195 c -28.29323,0.78555 -34.64339,0.15908 -48.78206,-4.81254 -11.35703,-3.99351 -14,-5.94357 -14,-10.32961 0,-4.43605 1.52918,-4.46437 14.62701,-0.27098 9.06814,2.90326 11.23642,3.19676 26.59811,3.60035 35.96932,0.94499 72.60635,-4.79704 84.99902,-13.32169 6.45106,-4.43755 12.28229,-4.73952 15.1652,-0.78533 1.68341,2.30896 1.81581,3.72884 1.21468,13.02671 -0.44806,6.93047 -1.43661,12.51492 -2.94329,16.62716 -2.16993,5.92247 -2.54496,6.33327 -8.61984,9.44187 -5.55915,2.84469 -7.29836,3.24449 -13.94605,3.2058 -5.42301,-0.0316 -8.60567,-0.57874 -11.12969,-1.91351 z m 224.53485,52.3575 c -8.39354,-1.24187 -27.99263,-5.97998 -35.5,-8.58217 -10.30563,-3.57213 -31.48884,-13.93735 -35.16708,-17.20771 -3.35364,-2.98176 -14.75024,-19.43926 -18.15788,-26.22125 -3.29527,-6.55838 -5.04973,-16.7183 -4.4483,-25.75973 0.84903,-12.76358 11.03218,-37.31256 19.32916,-46.59766 1.73551,-1.9422 3.68011,-4.5323 4.32133,-5.75579 1.36659,-2.60752 22.48666,-15.32149 30.26073,-18.21651 7.07502,-2.6347 20.42909,-6.4035 30.36204,-8.5688 7.01655,-1.52956 9.22931,-1.5957 18,-0.53803 24.83413,2.99478 32.96347,4.95511 47.16989,11.37467 14.19171,6.41291 20.61957,10.73576 29.64826,19.93897 7.13893,7.27693 8.24002,8.02422 12.67421,8.60175 4.61814,0.60148 5.74485,1.46169 22.99635,17.55686 9.97716,9.30841 18.87994,18.30841 19.78396,20 1.18248,2.21262 1.65542,5.74121 1.68551,12.57561 l 0.0418,9.5 -5,8.42205 c -6.00073,10.10767 -13.69601,18.70881 -21.92957,24.51102 -10.10534,7.12125 -29.18219,15.15098 -43.77245,18.42447 -26.87819,6.03043 -28.822,6.29237 -49.29798,6.64332 -11,0.18854 -21.35,0.14305 -23,-0.10107 z m 31.17764,-15.43211 c 16.00722,-2.11247 36.92138,-7.3706 46.23596,-11.62441 12.96421,-5.92054 25.47599,-17.7181 33.82491,-31.89403 5.33721,-9.06225 5.11769,-14.85339 -0.83169,-21.94033 -7.19571,-8.57159 -10.14354,-11.28889 -17.91663,-16.5155 -12.5918,-8.46671 -21.35556,-12.52717 -33.57149,-15.55447 -15.88814,-3.93733 -19.40752,-6.17624 -19.43401,-12.36325 -0.0195,-4.54412 -0.68378,-5.51785 -4.98469,-7.30638 -4.50808,-1.87467 -8.33397,-2.56853 -20.51946,-3.7214 -16.99793,-1.60816 -34.7249,1.99519 -52.30064,10.63112 -11.01034,5.40999 -24.23813,17.15525 -29.52239,26.21362 -7.73361,13.2571 -12.00178,29.63789 -9.79896,37.60735 1.05617,3.82103 9.25336,15.80176 14.95315,21.855 3.7873,4.02215 13.03382,10.17605 20.41533,13.58715 6.90103,3.18907 23.89442,8.59661 33.27297,10.58794 7.43156,1.57793 29.69901,1.82046 40.17764,0.43759 z m 25.35527,-29.54777 c -7.59592,-2.07024 -14.35202,-6.68973 -19.45407,-13.30175 -7.54433,-9.77709 -6.28142,-9.26315 -31.07884,-12.64758 -26.04139,-3.5542 -47.76655,-8.4023 -54.79548,-12.22792 -5.09151,-2.77114 -7.70452,-6.39771 -7.70452,-10.693 0,-3.34605 3.04907,-3.39068 10.78013,-0.15778 9.10589,3.80781 19.73367,6.33367 33.71987,8.01405 25.06907,3.01196 39.05737,4.77195 45.5,5.72479 11.67215,1.72625 38.04412,-1.51657 46.06512,-5.66439 4.70837,-2.4348 8.24897,-1.89749 10.29252,1.56195 2.22357,3.76422 1.60455,7.06478 -2.55328,13.61388 -1.69626,2.67181 -3.8768,6.70416 -4.84565,8.96077 -2.99607,6.97831 -12.81802,16.67325 -18.01818,17.78517 -1.34229,0.28701 -4.90072,-0.14867 -7.90762,-0.96819 z M 69.543525,322.51489 c -7.460982,-0.9349 -12.216128,-3.24245 -15.905823,-7.71869 -4.644075,-5.63407 -4.059352,-12.57373 1.838841,-21.8239 3.370157,-5.28544 14.301302,-15.25632 18.774722,-17.12544 4.25975,-1.77983 10.22243,-1.99167 13.07588,-0.46455 1.14669,0.61369 3.00411,1.1158 4.12759,1.1158 2.47842,0 5.375352,4.08967 4.504492,6.3591 -0.503722,1.31265 -2.081632,1.6409 -7.887832,1.6409 -8.45522,0 -10.92661,1.41152 -15.1805,8.67023 -2.95989,5.05068 -2.69971,5.5682 3.65263,7.26543 10.96834,2.93053 11.41947,2.83247 25.471125,-5.53638 18.32148,-10.91188 33.10187,-25.76302 48.71755,-48.95075 6.72111,-9.98019 11.95621,-19.52012 16.3623,-29.81707 1.81009,-4.23012 4.16176,-22.33173 3.22005,-24.78578 -0.45543,-1.18684 -3.03677,-1.66974 -11.52027,-2.15513 -7.78663,-0.44552 -12.34609,-1.2311 -15.84204,-2.72954 -6.23652,-2.6731 -7.70109,-4.03452 -12.06079,-11.21136 -5.72769,-9.4288 -4.67904,-18.35186 3.06707,-26.09797 4.75421,-4.75421 10.56719,-7.65168 15.351,-7.65168 6.29267,0 15.33318,3.68504 22.7678,9.28048 6.14146,4.62218 7.43978,6.21096 10.96621,13.41963 4.61955,9.44319 5.01096,9.94106 6.72583,8.55515 0.7008,-0.56636 4.42417,-2.25878 8.27417,-3.76094 3.85,-1.50216 9.925,-3.87678 13.5,-5.27694 13.80252,-5.4058 49.8696,-36.4634 48.79924,-42.02134 -0.16543,-0.85898 -2.77543,-3.25944 -5.80001,-5.33436 -14.7797,-10.13914 -20.89758,-24.619289 -18.07845,-42.789067 1.12861,-7.274058 5.20538,-17.632304 9.08286,-23.077728 1.16062,-1.629936 6.63781,-7.077235 12.17153,-12.10511 l 10.06133,-9.141591 6.66561,0.476923 c 8.05819,0.57656 12.38318,3.02415 19.92464,11.275705 6.4072,7.010495 7.44824,8.967123 10.65048,20.017351 1.99621,6.888514 2.52277,10.934972 2.52277,19.386716 0,9.556541 -0.37385,11.809895 -3.55067,21.401631 -1.95288,5.89627 -3.23704,11.22796 -2.85371,11.8482 1.10224,1.78346 17.46804,0.27821 29.16988,-2.68291 12.00973,-3.03904 23.82065,-8.09631 40.05197,-17.149712 12.40246,-6.917763 18.18253,-10.841262 18.18253,-12.342253 0,-0.505109 -2.40347,-2.455862 -5.34105,-4.335007 -13.76507,-8.805413 -19.62164,-19.793034 -19.82423,-37.192619 -0.0701,-6.020314 0.35713,-8.034047 2.5652,-12.090989 3.0151,-5.539747 14.58224,-19.0100253 18.5175,-21.5641806 6.39743,-4.1522224 22.84451,-6.10156041 31.41079,-3.7228653 2.5051,0.6956173 6.30695,3.4270432 11,7.9029009 l 7.17179,6.839879 -0.0265,12.341522 c -0.0251,11.716215 -0.19414,12.733334 -3.33627,20.074616 -1.82041,4.253201 -5.30805,10.775433 -7.75032,14.493848 -4.03777,6.147619 -4.28735,6.872724 -2.75203,7.995378 2.00271,1.464421 3.00627,1.263982 19.86507,-3.967631 29.50081,-9.154672 45.07423,-15.416759 48.92639,-19.673351 0.84593,-0.934739 2.85282,-6.267901 4.45976,-11.85147 3.73711,-12.985199 8.46453,-20.85711 15.36115,-25.578774 8.35694,-5.7214582 12.79932,-6.8954057 23.09735,-6.1037319 8.01122,0.6158727 9.18125,0.9754802 12.41679,3.8162905 9.53328,8.3702264 8.97405,18.1078354 -2.02544,35.2681594 -4.60717,7.187658 -10.55591,12.353405 -18.236,15.835716 -4.64523,2.106244 -9.51028,5.3664 -9.4768,6.350566 0.0128,0.375048 1.58776,2.419094 3.5,4.542324 1.91224,2.123231 3.4768,4.258425 3.4768,4.744878 0,2.491977 27.20559,11.511109 40.27642,13.352339 3.79588,0.53471 5.43817,0.272542 8,-1.277081 1.77297,-1.072452 5.92358,-2.256738 9.22358,-2.631746 3.3,-0.375007 7.35,-1.088304 9,-1.585104 1.65,-0.4968 7.05,-2.081297 12,-3.521105 16.68475,-4.853097 24.98585,-7.744785 27.75,-9.666704 l 2.75005,-1.912083 V 55.479235 c 0,-17.411199 1.11354,-22.166615 6.40905,-27.370114 2.30103,-2.261057 5.96283,-5.007905 8.13733,-6.104106 2.17449,-1.096201 6.42862,-3.405433 9.45362,-5.131626 3.025,-1.726193 7.86759,-3.957525 10.76131,-4.958517 4.6861,-1.621012 6.05269,-1.684408 12.5,-0.579876 10.33607,1.770743 13.66304,3.696773 17.4938,10.127423 3.89812,6.543725 3.78197,7.958599 -1.84997,22.535689 -3.73227,9.660189 -4.19558,10.328003 -13.63435,19.652519 -5.37393,5.308886 -11.57079,10.571167 -13.77079,11.693959 -7.24167,3.695861 -14.9903,9.710176 -15.30872,11.882297 -0.39262,2.678279 3.79092,10.988877 7.47841,14.855827 8.69158,9.11459 21.94187,16.80488 35.95373,20.86705 7.13755,2.06925 10.9372,2.54835 20.21063,2.54835 10.7348,0 11.79621,-0.18495 17.67759,-3.08035 5.25567,-2.58735 6.54016,-3.74767 8.02588,-7.25 6.0132,-14.17504 7.4494,-16.617604 16.46248,-27.998 3.60591,-4.553016 13.91169,-14.137143 18.5,-17.204557 6.07607,-4.062025 15.84469,-6.1685 20.8877,-4.504159 4.12676,1.361956 9.37815,6.733844 10.53874,10.780559 2.9554,10.304879 -9.69916,30.399167 -28.84408,45.801777 -10.62165,8.54541 -13.03294,9.97963 -18.50391,11.00599 -7.23177,1.35669 -7.57845,2.31235 -7.57845,20.89066 0,15.95761 0.10419,16.78565 3.53717,28.11136 5.22357,17.23304 9.04854,25.65654 13.99381,30.81771 6.82506,7.12303 9.40256,8.11214 20.96902,8.04686 16.9455,-0.0956 32.19063,-6.09615 45.07343,-17.74098 8.32728,-7.52708 21.04128,-14.14004 25.36126,-13.19121 3.82644,0.84042 7.06531,4.08403 7.06531,7.07564 0,2.10829 -4.39382,8.0492 -9.565,12.9329 -3.21977,3.04077 -12.68113,16.7907 -14.91545,21.67621 -5.0281,10.9943 -7.89866,22.64032 -7.84549,31.82959 0.0654,11.31127 1.66888,15.01942 7.77209,17.97393 2.59638,1.25689 8.08126,2.64818 12.36069,3.13542 9.33835,1.06321 28.95584,-0.34186 35.21909,-2.52252 2.46074,-0.85675 5.37407,-1.57082 6.47407,-1.58683 1.1,-0.016 3.94437,-0.70632 6.32081,-1.53403 7.38872,-2.57346 15.79182,1.17842 15.00955,6.70156 -0.39127,2.76254 -11.80513,11.70901 -17.54776,13.75437 -2.08043,0.74099 -5.5826,2.13255 -7.7826,3.09236 -13.00558,5.67399 -26.56173,8.46748 -39,8.03664 -6.75583,-0.23401 -13.07234,-4.45693 -27.70773,-18.52405 -4.18338,-4.02095 -9.12359,-13.63312 -10.823,-21.05833 -1.7743,-7.75242 -1.50525,-20.14006 0.58061,-26.73173 2.40708,-7.60683 1.69633,-8.22193 -7.12183,-6.16331 -11.87983,2.77339 -21.35471,2.94677 -28.63516,0.52399 -15.36178,-5.11207 -32.97291,-22.20812 -40.93372,-39.73652 -6.18299,-13.61392 -7.16182,-18.96684 -7.24606,-39.62657 l -0.0765,-18.76561 -14.55305,0.20766 c -8.00418,0.11422 -15.11401,-0.13903 -15.79963,-0.56277 -0.68563,-0.42374 -7.32551,-2.27482 -14.75531,-4.11351 -11.24466,-2.78277 -14.8009,-4.14768 -21.21866,-8.14382 -11.78685,-7.33932 -20.18323,-16.31391 -25.2473,-26.98595 -2.31503,-4.878712 -4.34439,-9.023584 -4.50968,-9.210832 -0.16529,-0.187247 -4.04732,0.651329 -8.62674,1.863502 -18.91423,5.006598 -25.79061,5.891279 -54.82622,7.05366 -15.675,0.62752 -31.80854,0.86882 -35.85232,0.53622 -9.64076,-0.79295 -16.93954,-4.657075 -25.32998,-13.410219 -3.47474,-3.624941 -8.14983,-8.507322 -10.3891,-10.849735 l -4.0714,-4.258933 -6.4286,1.525513 c -3.53575,0.839032 -10.02862,2.353397 -14.42862,3.365254 -4.4,1.011858 -13.175,3.06852 -19.5,4.570359 -9.45999,2.246228 -14.27214,2.781839 -27.12714,3.019362 -8.59493,0.158809 -17.14493,0.544361 -19,0.856783 -1.85507,0.312422 -4.65097,0.770749 -6.2131,1.018505 -1.56214,0.247756 -4.41936,1.710402 -6.34938,3.250323 -1.93003,1.539921 -4.50745,3.474856 -5.7276,4.299856 -1.22016,0.825 -3.98794,2.887006 -6.15063,4.582236 -9.60174,7.526376 -33.29068,17.852376 -54.84771,23.908116 -3.25356,0.91398 -13.3605,2.19005 -22.45987,2.83571 l -16.5443,1.17394 -3.54014,4.57933 c -1.94707,2.51863 -8.71513,9.49763 -15.04013,15.50889 -11.38732,10.82248 -23.87614,19.42168 -35.65077,24.54742 -2.66708,1.16104 -6.73019,2.95236 -9.02913,3.98073 -4.63203,2.07199 -28.16436,8.29503 -35.525,9.39445 -2.5877,0.38651 -5.38955,1.21719 -6.22634,1.84596 -0.94324,0.70876 -2.08574,4.75351 -3.00634,10.64322 -3.96048,25.33805 -9.81247,40.05116 -23.66548,59.5 -2.74228,3.85 -6.70636,9.475 -8.80907,12.5 -4.25006,6.11421 -15.73387,18.05972 -24.11653,25.0861 -9.35892,7.84469 -22.89915,17.9139 -24.08911,17.9139 -0.62481,0 -4.365413,1.78267 -8.312455,3.96148 -6.02341,3.32499 -17.61121,7.41397 -19.52988,6.8915 -0.29694,-0.0809 -3.0149,-0.45715 -6.0399,-0.8362 z M 164.67779,175.42626 c 2.16202,-1.15708 1.80278,-3.99072 -1.28832,-10.16215 -2.39351,-4.77866 -5.35725,-5.56612 -10.69678,-2.8421 -6.11118,3.1177 -8.18952,8.94284 -4.39916,12.32994 3.08432,2.75616 11.82231,3.11579 16.38426,0.67431 z m 108.19634,-67.9092 c 4.40826,-5.23892 10.43398,-17.329481 11.67401,-23.423808 2.33578,-11.479549 -1.67289,-22.276767 -10.42831,-28.088279 -2.90582,-1.928776 -5.77633,-3.506865 -6.37891,-3.506865 -3.17363,0 -10.02831,13.600465 -12.69814,25.194531 -1.9761,8.581452 -1.68443,14.505625 0.99181,20.145392 2.33533,4.921349 9.90454,12.660079 12.38274,12.660079 1.07163,0 3.07719,-1.34147 4.4568,-2.98105 z M 412.51106,55.2077 c 4.68401,-9.221701 5.49664,-12.838944 4.56303,-20.31126 -0.81994,-6.562588 -4.96835,-11.939189 -11.47615,-14.873797 -3.86166,-1.741365 -4.19547,-1.742378 -8.68877,-0.02637 -12.53044,4.785418 -19.96014,19.109351 -14.52431,28.001835 1.00862,1.65 5.98466,7.275 11.05788,12.5 l 9.22402,9.5 2.94365,-3.5 c 1.61901,-1.925 4.7243,-7.005684 6.90065,-11.290408 z m 249.82516,-6.429613 c 2.91098,-2.078988 6.11445,-5.129979 7.11882,-6.779979 3.57667,-5.875822 3.40246,-13.39807 -0.34359,-14.835563 -3.62306,-1.390299 -10.59678,3.403526 -15.03642,10.336225 -2.9889,4.667307 -6.9306,16.516923 -6.1612,18.521933 0.53479,1.393654 1.1634,1.273495 4.87186,-0.931261 2.34181,-1.392257 6.63955,-4.232366 9.55053,-6.311355 z M 518.62131,29.34916 c 4.59218,-3.994155 5.6733,-5.446053 4.82046,-6.473665 -2.78879,-3.360283 -14.6716,6.944247 -12.34638,10.706529 0.88564,1.432997 1.24251,1.232284 7.52592,-4.232864 z"
       id="path1" />
  </g>
</svg>
